<?xml version="1.0" encoding="UTF-8"?>
<svg version="1.1" xmlns="http://www.w3.org/2000/svg" width="471" height="530">
<path d="M0 0 C0.96421875 0.48726562 1.9284375 0.97453125 2.921875 1.4765625 C8.24156959 4.28018532 13.29979807 7.23983845 18 11 C18 11.66 18 12.32 18 13 C18.57234375 13.24492187 19.1446875 13.48984375 19.734375 13.7421875 C22.38024402 15.21110099 24.14853139 16.95348244 26.25 19.125 C26.95640625 19.84945312 27.6628125 20.57390625 28.390625 21.3203125 C29.18726563 22.15175781 29.18726563 22.15175781 30 23 C30.94875 22.195625 31.8975 21.39125 32.875 20.5625 C33.85146484 19.73685547 33.85146484 19.73685547 34.84765625 18.89453125 C36.29147205 17.6236589 37.69591479 16.30672626 39.05859375 14.94921875 C55.59112028 -1.18217195 78.96081527 -9.43828909 101.8125 -9.3125 C102.87202881 -9.30758545 103.93155762 -9.3026709 105.02319336 -9.29760742 C112.71556045 -9.18244338 119.65571569 -8.38425918 127 -6 C128.20527344 -5.64808594 129.41054688 -5.29617187 130.65234375 -4.93359375 C145.43545108 -0.48546235 157.35145184 7.07875841 169 17 C169.68835938 17.58394531 170.37671875 18.16789062 171.0859375 18.76953125 C184.30476721 31.02642734 194.32632508 49.77620311 199 67 C199.28488281 68.01835937 199.56976563 69.03671875 199.86328125 70.0859375 C205.06793125 89.67120811 204.70052946 111.3505764 200 131 C199.56494141 132.88332031 199.56494141 132.88332031 199.12109375 134.8046875 C193.82941091 156.10426444 184.30844141 174.92840877 172 193 C171.60167969 193.58910156 171.20335937 194.17820312 170.79296875 194.78515625 C165.09683488 203.1575689 158.93879618 210.61277821 152 218 C150.84765116 219.32770627 149.70125055 220.66061245 148.5625 222 C130.06588959 243.24492753 106.65644003 259.97605373 82.88232422 274.82421875 C81.55369012 275.65414117 80.22741005 276.48783794 78.90283203 277.32421875 C41.8808355 300.67039276 41.8808355 300.67039276 26 299 C11.26340625 295.63714358 -2.36106756 287.08511911 -15.07617188 279.19287109 C-17.08193926 277.9491935 -19.09528594 276.71842925 -21.109375 275.48828125 C-28.11693467 271.18468527 -34.9264015 266.75224645 -41.515625 261.8203125 C-44.72241479 259.4706835 -48.05067293 257.33775673 -51.41796875 255.2265625 C-51.94003906 254.82179688 -52.46210938 254.41703125 -53 254 C-53 253.34 -53 252.68 -53 252 C-53.56074219 251.74605469 -54.12148437 251.49210937 -54.69921875 251.23046875 C-61.3868932 247.65386866 -67.08384046 242.1095107 -72.31640625 236.68359375 C-73.99184853 235.00815147 -75.74065988 233.51370648 -77.5625 232 C-92.39101095 219.15822158 -104.17859628 203.23210558 -115 187 C-115.66773437 186.00871094 -116.33546875 185.01742187 -117.0234375 183.99609375 C-123.15041584 174.51501858 -127.61624113 164.37659873 -132 154 C-132.4228125 153.01386719 -132.845625 152.02773438 -133.28125 151.01171875 C-138.14930672 138.70417213 -141.76773988 124.25541694 -142 111 C-142.01901367 110.21512207 -142.03802734 109.43024414 -142.05761719 108.62158203 C-142.67129767 80.68905983 -136.83342195 53.9228511 -120 31 C-119.34 31 -118.68 31 -118 31 C-117.34 29.35 -116.68 27.7 -116 26 C-115.34 26 -114.68 26 -114 26 C-113.61328125 25.12601563 -113.61328125 25.12601563 -113.21875 24.234375 C-111.90165983 21.8197097 -110.44911616 20.18259823 -108.5 18.25 C-107.58734375 17.32960937 -107.58734375 17.32960937 -106.65625 16.390625 C-105 15 -105 15 -103 15 C-103 14.34 -103 13.68 -103 13 C-100.98797784 11.49862784 -98.99669309 10.14385127 -96.875 8.8125 C-96.24335937 8.41393799 -95.61171875 8.01537598 -94.9609375 7.60473633 C-66.33568794 -10.16180311 -30.91270987 -15.63713102 0 0 Z M53.18359375 59.9921875 C51.8074267 61.9004167 51.8074267 61.9004167 52.1171875 64.00390625 C55.40625227 71.44068544 62.60953503 77.0393266 69.8515625 80.2734375 C77.80606445 83.34719118 85.76971381 85.1352969 94.15893555 86.56860352 C98.75221198 87.38537769 102.0749115 88.33304927 106 91 C106.66 91 107.32 91 108 91 C110.80066288 97.60156251 112.37043296 103.74793535 112.3125 110.9375 C112.30512817 112.03904419 112.30512817 112.03904419 112.29760742 113.1628418 C112.04037986 125.49525433 109.44970726 136.88321824 104 148 C103.55785156 148.92296875 103.11570312 149.8459375 102.66015625 150.796875 C98.99904234 157.97712057 94.34082724 163.98812218 89 170 C88.38511719 170.69867188 87.77023437 171.39734375 87.13671875 172.1171875 C74.49534528 185.59770996 57.78411141 193.89367314 40.4296875 199.5390625 C39.43639435 199.86272797 39.43639435 199.86272797 38.42303467 200.19293213 C35.1232429 201.25993963 31.8172492 202.29511776 28.49414062 203.28710938 C20.99983699 205.61998185 14.48353619 208.1724849 9 214 C9 214.66 9 215.32 9 216 C8.34 216 7.68 216 7 216 C2.47382808 223.81977024 1.44032798 231.80745606 3.66015625 240.62109375 C6.65081897 248.29842272 12.0451152 252.19059977 19.1875 255.875 C25.87971383 258.6354247 32.03485531 259.93210476 38.99511719 257.22363281 C53.54447053 250.60176882 66.60005652 240.97751033 79 231 C79.80727539 230.351521 79.80727539 230.351521 80.63085938 229.68994141 C88.64063366 223.18977512 96.05726064 216.14166636 103.375 208.875 C104.22658691 208.03267822 105.07817383 207.19035645 105.95556641 206.32250977 C106.74108887 205.53287842 107.52661133 204.74324707 108.3359375 203.9296875 C109.04282715 203.22054199 109.7497168 202.51139648 110.47802734 201.78076172 C112.21656976 200.13702976 112.21656976 200.13702976 112 198 C112.66 198 113.32 198 114 198 C115.64921837 196.07641441 117.17700184 194.15360802 118.6875 192.125 C119.36232422 191.2292627 119.36232422 191.2292627 120.05078125 190.31542969 C121.37510165 188.54935384 122.68865693 186.77572315 124 185 C124.61488281 184.17757812 125.22976563 183.35515625 125.86328125 182.5078125 C144.43139361 156.89356681 158.47209539 123.68142703 153.34765625 91.4765625 C150.62762334 76.79461983 144.69657351 63.67478823 134 53 C133.34 53 132.68 53 132 53 C132 52.34 132 51.68 132 51 C130.00447511 49.58662824 128.03201212 48.31278379 125.9375 47.0625 C124.81214844 46.37285156 123.68679688 45.68320312 122.52734375 44.97265625 C98.86205118 31.27605365 70.62267629 40.86545181 53.18359375 59.9921875 Z " fill="#338794" transform="translate(205,223)"/>
<path d="M0 0 C1.98014432 0.72351427 3.97821315 1.40265389 6 2 C6 2.99 6 3.98 6 5 C6.66 5 7.32 5 8 5 C8 5.66 8 6.32 8 7 C8.94875 7.2475 9.8975 7.495 10.875 7.75 C14 9 14 9 15.125 10.9375 C15.558125 11.9584375 15.558125 11.9584375 16 13 C16.63679687 13.43828125 17.27359375 13.8765625 17.9296875 14.328125 C20.41087874 16.33180397 20.97137985 17.82307269 22 20.8125 C23.05905751 23.86201828 24.11313194 26.1647201 25.953125 28.84375 C28.20304197 32.31308761 29.46104758 35.79959672 30.75 39.6875 C35.18830447 52.1413138 43.19602581 63.05368117 54.90625 69.6328125 C59.23907937 71.67110589 63.27134775 73.18500787 68 74 C68.01417969 74.70125 68.02835938 75.4025 68.04296875 76.125 C68.52482453 85.71002299 71.37908449 90.74767768 78.3125 97.25 C82.29430044 100.64388359 86.21574847 102.9123266 91 105 C90.21789509 111.91705773 86.92427032 116.4079148 83 122 C82.54625 122.65484375 82.0925 123.3096875 81.625 123.984375 C73.8394819 134.08701159 62.28849077 139.00794476 50 141 C33.79307003 142.61564411 19.17790551 138.26920472 6 129 C0.6792912 124.4737532 -3.67511677 119.53012117 -7.75 113.875 C-10.23206404 110.45488417 -10.23206404 110.45488417 -14.3125 109.3125 C-17.12977392 109.78990566 -17.12977392 109.78990566 -19 112 C-20.43315926 120.28047573 -16.20651338 127.1493925 -12 134 C-1.87716458 147.00314736 12.72500181 152.56151521 28 157 C25.02137323 158.98575118 24.00349025 159.25536753 20.625 159.6875 C11.95651598 161.28097133 4.12998327 165.76006187 -2 172 C-2.66 172 -3.32 172 -4 172 C-4.2475 172.556875 -4.495 173.11375 -4.75 173.6875 C-6 176 -6 176 -7.8125 178.0625 C-16.79601259 190.12607405 -17.94449855 204.4577207 -17 219 C-15.7910094 226.25394361 -12.3910551 232.74302986 -9.20703125 239.3125 C-8 242 -8 242 -8 244 C-6.68 244.66 -5.36 245.32 -4 246 C-4 246.99 -4 247.98 -4 249 C-3.443125 249.226875 -2.88625 249.45375 -2.3125 249.6875 C-0 251 -0 251 2.28515625 253.29296875 C5.83468698 256.83228501 9.73037243 259.82620086 13.671875 262.9140625 C16 265 16 265 17 268 C10.42687797 266.09487409 4.7957946 263.44940477 -1.0625 259.9375 C-1.88032959 259.45506836 -2.69815918 258.97263672 -3.54077148 258.47558594 C-14.05360994 252.24258926 -24.53930503 245.92851178 -34.47265625 238.796875 C-36.46397653 237.3810986 -38.46846758 236.00291079 -40.49609375 234.640625 C-41.39775269 234.03069702 -41.39775269 234.03069702 -42.31762695 233.40844727 C-43.50411782 232.60692885 -44.6939737 231.81036478 -45.88745117 231.01928711 C-47.29395651 230.06332122 -48.65227883 229.03719607 -50 228 C-50 227.34 -50 226.68 -50 226 C-50.56074219 225.74605469 -51.12148437 225.49210938 -51.69921875 225.23046875 C-58.3868932 221.65386866 -64.08384046 216.1095107 -69.31640625 210.68359375 C-70.99184853 209.00815147 -72.74065988 207.51370648 -74.5625 206 C-89.39101095 193.15822158 -101.17859628 177.23210558 -112 161 C-112.66773437 160.00871094 -113.33546875 159.01742187 -114.0234375 157.99609375 C-120.15041584 148.51501858 -124.61624113 138.37659873 -129 128 C-129.4228125 127.01386719 -129.845625 126.02773438 -130.28125 125.01171875 C-135.07739711 112.88597586 -139.37996508 98.09433531 -138 85 C-137.67 85 -137.34 85 -137 85 C-137 87.97 -137 90.94 -137 94 C-136.01 94.33 -135.02 94.66 -134 95 C-134.495 95.99 -134.495 95.99 -135 97 C-134.34 97 -133.68 97 -133 97 C-132.90525391 97.89138672 -132.90525391 97.89138672 -132.80859375 98.80078125 C-131.82499959 105.45816065 -129.45563362 110.03270199 -125.65625 115.5546875 C-124 118 -124 118 -122.88671875 120.26171875 C-121.67881367 122.62963839 -120.41110381 122.89219554 -118 124 C-116.36535464 125.19790805 -114.76239125 126.42771582 -113.171875 127.68359375 C-105.90661477 132.08717774 -99.31517292 132.49410081 -91 132.4375 C-89.9584375 132.45748047 -88.916875 132.47746094 -87.84375 132.49804688 C-77.73178922 132.49166306 -71.78419979 129.32706759 -64.625 122.4375 C-64.10550781 121.95603516 -63.58601563 121.47457031 -63.05078125 120.97851562 C-60.69147883 118.76247834 -58.80361729 116.70542594 -57 114 C-56.34 114 -55.68 114 -55 114 C-54.84724609 112.99066406 -54.84724609 112.99066406 -54.69140625 111.9609375 C-54 109 -54 109 -52.58984375 105.6640625 C-44.8065864 87.20395244 -45.12993035 62.74453509 -52 44 C-52.33668701 43.06075684 -52.33668701 43.06075684 -52.68017578 42.10253906 C-54.02847557 38.36197292 -55.46724763 34.66855486 -57 31 C-57.01981934 31.65895264 -57.03963867 32.31790527 -57.06005859 32.99682617 C-57.85741644 58.22373077 -57.85741644 58.22373077 -60 68 C-60.15452637 68.71462402 -60.30905273 69.42924805 -60.46826172 70.16552734 C-63.43727156 83.53843105 -66.97045134 96.59477437 -77.91015625 105.73046875 C-84.43276636 109.69280199 -91.59130335 109.87978273 -99 109 C-105.93798221 106.3363104 -110.82031083 98.9086691 -113.8125 92.375 C-120.62759557 73.005781 -114.88540358 50.85797615 -106.58984375 32.95703125 C-101.20646565 22.5651621 -94.28604369 13.17726086 -85 6 C-84.02933594 5.21882813 -84.02933594 5.21882813 -83.0390625 4.421875 C-78.31081461 0.72150709 -73.32706475 -2.2449373 -68 -5 C-67.071875 -5.50789062 -66.14375 -6.01578125 -65.1875 -6.5390625 C-45.70107479 -15.47034072 -16.94339265 -12.86705342 0 0 Z " fill="#7EC4DE" transform="translate(202,249)"/>
<path d="M0 0 C1.80791016 0.52787109 1.80791016 0.52787109 3.65234375 1.06640625 C18.43545108 5.51453765 30.35145184 13.07875841 42 23 C42.68835938 23.58394531 43.37671875 24.16789062 44.0859375 24.76953125 C57.30476721 37.02642734 67.32632508 55.77620311 72 73 C72.28488281 74.01835937 72.56976563 75.03671875 72.86328125 76.0859375 C78.06793125 95.67120811 77.70052946 117.3505764 73 137 C72.56494141 138.88332031 72.56494141 138.88332031 72.12109375 140.8046875 C66.82941091 162.10426444 57.30844141 180.92840877 45 199 C44.60167969 199.58910156 44.20335937 200.17820312 43.79296875 200.78515625 C38.09683488 209.1575689 31.93879618 216.61277821 25 224 C23.84765116 225.32770627 22.70125055 226.66061245 21.5625 228 C12.59766767 238.2968711 2.49333557 247.28828949 -8.1875 255.75 C-8.78216064 256.22244141 -9.37682129 256.69488281 -9.98950195 257.18164062 C-13.20944202 259.70665883 -16.42736508 261.98156219 -20 264 C-20 263.34 -20 262.68 -20 262 C-20.60328125 262.433125 -21.2065625 262.86625 -21.828125 263.3125 C-23.02695312 264.1478125 -23.02695312 264.1478125 -24.25 265 C-25.43335938 265.8353125 -25.43335938 265.8353125 -26.640625 266.6875 C-29 268 -29 268 -33 268 C-33 268.66 -33 269.32 -33 270 C-50.59834331 277.77650764 -71.68326636 285.11290839 -90.8125 277.97265625 C-91.534375 277.65167969 -92.25625 277.33070313 -93 277 C-93.825 276.64808594 -94.65 276.29617188 -95.5 275.93359375 C-104.12587732 271.94938517 -113.28092816 265.72755541 -119 258 C-119.6875 255.2890625 -119.6875 255.2890625 -120 253 C-119.28714844 253.47050781 -118.57429687 253.94101562 -117.83984375 254.42578125 C-108.75265302 260.33306675 -101.1596677 265.13748646 -90 263 C-67.0821559 254.25986149 -26.30233554 226.60467109 -15 204 C-14.34 204 -13.68 204 -13 204 C-12.7628125 203.45859375 -12.525625 202.9171875 -12.28125 202.359375 C-10.65804371 199.3703 -8.62854859 196.90394982 -6.5 194.25 C-1.13949383 187.42449857 3.48152 180.2369591 7.92626953 172.78955078 C8.83595853 171.27340245 9.77253952 169.77343953 10.71484375 168.27734375 C24.0326475 145.9868022 29.78713646 115.89516979 23.90673828 90.59106445 C21.11944128 79.81920123 16.40349322 70.64641061 8.50390625 62.671875 C7 61 7 61 7 59 C6.34 59 5.68 59 5 59 C5 58.34 5 57.68 5 57 C4.278125 56.731875 3.55625 56.46375 2.8125 56.1875 C-0.87381134 54.63105743 -4.11376043 52.55389973 -7.5 50.4375 C-18.090293 44.34808153 -32.16572607 44.66564354 -43.8046875 47.37890625 C-55.4322864 50.66856501 -66.94420483 58.11757129 -74 68 C-75.32 67.67 -76.64 67.34 -78 67 C-78.2475 65.845 -78.495 64.69 -78.75 63.5 C-79.7093005 59.62853726 -81.18674527 56.33697751 -83.05859375 52.828125 C-84 51 -84 51 -85.0625 48.0625 C-85.371875 47.381875 -85.68125 46.70125 -86 46 C-86.99 45.67 -87.98 45.34 -89 45 C-90.28125 42.890625 -90.28125 42.890625 -91.5 40.25 C-93.15932383 36.69734514 -94.93593006 33.33611304 -97 30 C-81.28705152 13.46645267 -64.27848392 3.00840517 -42 -2 C-40.80528076 -2.26937378 -40.80528076 -2.26937378 -39.58642578 -2.54418945 C-26.9400644 -4.77288085 -12.15647854 -3.94649694 0 0 Z " fill="#F18463" transform="translate(332,217)"/>
<path d="M0 0 C18.16230023 14.36438651 24.00111982 36.31990605 26.64794922 58.296875 C27.13359477 62.76203329 27.22821973 67.01608537 26.88671875 71.4921875 C26.82291016 72.42949707 26.82291016 72.42949707 26.7578125 73.38574219 C24.6691461 102.1584608 14.30005782 134.11758534 -7.11328125 154.4921875 C-7.77328125 154.4921875 -8.43328125 154.4921875 -9.11328125 154.4921875 C-9.11328125 155.1521875 -9.11328125 155.8121875 -9.11328125 156.4921875 C-9.77328125 156.4921875 -10.43328125 156.4921875 -11.11328125 156.4921875 C-11.11328125 157.1521875 -11.11328125 157.8121875 -11.11328125 158.4921875 C-24.29871267 169.62966894 -37.80391654 173.61686528 -54.71826172 172.73046875 C-63.61058629 171.84576857 -71.87410095 166.74712331 -78.11328125 160.4921875 C-78.11328125 159.8321875 -78.11328125 159.1721875 -78.11328125 158.4921875 C-78.77328125 158.4921875 -79.43328125 158.4921875 -80.11328125 158.4921875 C-96.2870466 137.01190189 -102.06210855 109.21748778 -98.39453125 82.734375 C-95.22807483 62.54316249 -89.92486469 41.5609497 -78.11328125 24.4921875 C-77.45328125 24.4921875 -76.79328125 24.4921875 -76.11328125 24.4921875 C-75.88640625 23.78707031 -75.65953125 23.08195312 -75.42578125 22.35546875 C-73.848775 18.91515452 -71.67695724 16.4052984 -69.11328125 13.6796875 C-68.37634033 12.89247314 -68.37634033 12.89247314 -67.62451172 12.08935547 C-49.44719537 -6.97608434 -23.24309521 -16.77508846 0 0 Z " fill="#67B9DA" transform="translate(346.11328125,17.5078125)"/>
<path d="M0 0 C4.22805432 3.46420735 8.13358862 7.13901897 12 11 C12.7321875 11.72058594 13.464375 12.44117187 14.21875 13.18359375 C35.23212695 35.2393009 43.98190584 70.08775939 43.28515625 99.8359375 C41.96106901 122.51716416 36.7500151 143.65781135 20 160 C16.995574 162.54906768 14.00951867 164.72023032 10.5625 166.625 C9.84191406 167.02976563 9.12132812 167.43453125 8.37890625 167.8515625 C-1.15303335 172.45318851 -12.51311997 172.45430574 -22.74609375 170.16015625 C-30.43409766 167.41905522 -36.65948155 163.05971256 -43 158 C-43.76183594 157.46632812 -44.52367187 156.93265625 -45.30859375 156.3828125 C-45.86675781 155.92648438 -46.42492187 155.47015625 -47 155 C-47 154.34 -47 153.68 -47 153 C-47.66 153 -48.32 153 -49 153 C-50.80171881 150.97685783 -52.47316161 148.95372029 -54.125 146.8125 C-54.61782471 146.17393066 -55.11064941 145.53536133 -55.6184082 144.87744141 C-68.15933901 128.39391091 -75.86208111 110.25402405 -80 90 C-80.22429687 88.98679687 -80.44859375 87.97359375 -80.6796875 86.9296875 C-84.49898632 66.89144846 -82.17230353 46.25116231 -76 27 C-75.72542969 26.11441406 -75.45085937 25.22882812 -75.16796875 24.31640625 C-70.79570991 11.83849861 -60.57104439 -0.18892834 -48.875 -6.4375 C-32.36539793 -13.62557725 -14.58195543 -9.99669466 0 0 Z " fill="#257C87" transform="translate(181,19)"/>
<path d="M0 0 C0.79792969 0.44601563 1.59585938 0.89203125 2.41796875 1.3515625 C17.77452116 10.81394763 27.99556472 27.20563722 32.25 44.5625 C35.36964436 60.83762577 35.51237906 78.92932843 26.5 93.41015625 C20.28759978 102.02410934 12.41134878 106.96188931 2 109 C-10.65868289 110.22503383 -21.70656067 104.86229288 -32 98 C-32 97.34 -32 96.68 -32 96 C-32.66 96 -33.32 96 -34 96 C-34 95.34 -34 94.68 -34 94 C-34.56847656 93.7834375 -35.13695313 93.566875 -35.72265625 93.34375 C-47.18556498 86.58004399 -52.71600265 69.53267261 -55.9921875 57.38671875 C-59.64036973 42.56883367 -58.74996837 27.72609548 -52 14 C-40.12761138 -4.91101902 -19.86085032 -11.12207618 0 0 Z " fill="#217481" transform="translate(63,127)"/>
<path d="M0 0 C1.40230641 0.87432231 2.78331691 1.78522579 4.125 2.75 C5.011875 3.306875 5.89875 3.86375 6.8125 4.4375 C17.43504495 15.06004495 21.93481988 28.27047541 22.3125 43 C22.05692296 63.6165481 14.35784473 82.51834298 -0.0859375 97.12109375 C-9.16311644 105.67703412 -20.71937429 112.17963339 -33.53515625 111.96484375 C-45.27378708 110.88700619 -53.61833479 105.94832181 -61.1171875 97.08203125 C-71.1967525 83.70980835 -70.35576043 66.22014327 -68.60253906 50.27148438 C-66.01337437 34.50178441 -57.03855904 21.65011222 -45.875 10.75 C-45.20726562 10.06164062 -44.53953125 9.37328125 -43.8515625 8.6640625 C-32.60823945 -2.19973909 -14.59454128 -7.00276196 0 0 Z " fill="#F27B5D" transform="translate(443.875,124.25)"/>
<path d="M0 0 C5.84428258 3.08205947 9.72325671 6.93899485 12.35546875 13.0546875 C12.62109375 15.30859375 12.62109375 15.30859375 12.60546875 17.6171875 C12.61320312 18.76380859 12.61320312 18.76380859 12.62109375 19.93359375 C12.35546875 22.0546875 12.35546875 22.0546875 10.35546875 25.0546875 C5.4768176 24.6365174 3.64214254 22.51434412 0.35546875 19.0546875 C-3.72973967 17.69295136 -7.37671957 17.42513037 -11.64453125 18.0546875 C-16.93307093 21.30917346 -19.64337828 25.70307401 -22.64453125 31.0546875 C-25.60057806 30.73511487 -27.19423648 30.52755074 -29.28125 28.3359375 C-31.77780219 24.15832581 -31.32880716 19.75338208 -30.64453125 15.0546875 C-28.09456114 8.42476522 -22.74889383 3.56386714 -16.78515625 -0.08203125 C-11.58052079 -2.18098095 -5.22472141 -1.86762568 0 0 Z " fill="#378D97" transform="translate(206.64453125,296.9453125)"/>
<path d="M0 0 C1.80791016 0.52787109 1.80791016 0.52787109 3.65234375 1.06640625 C17.96272441 5.37357349 29.51596137 12.65864615 41 22 C39.68 22.66 38.36 23.32 37 24 C37 23.34 37 22.68 37 22 C36.401875 21.87625 35.80375 21.7525 35.1875 21.625 C32.23542114 20.7815489 30.36831255 19.41424329 28.33984375 17.1328125 C25.10833597 14.18723112 21.52541368 12.65509615 17.5625 10.875 C16.81162109 10.52824219 16.06074219 10.18148437 15.28710938 9.82421875 C9.83638298 7.32177444 4.68876023 4.9954528 -1.25 3.9375 C-5.89369369 3.10630631 -5.89369369 3.10630631 -7 2 C-9.67205379 1.75844157 -12.32222552 1.5756931 -15 1.4375 C-15.73089844 1.39431641 -16.46179688 1.35113281 -17.21484375 1.30664062 C-19.47614504 1.18145435 -21.73687609 1.08569864 -24 1 C-24.71623535 0.96575928 -25.4324707 0.93151855 -26.17041016 0.89624023 C-32.44864951 0.72266455 -38.26451854 1.81876021 -44.375 3.1875 C-45.89746338 3.52370361 -45.89746338 3.52370361 -47.45068359 3.86669922 C-54.38585109 5.46626384 -60.80913928 7.40605464 -67 11 C-67.85980469 11.49886719 -68.71960938 11.99773437 -69.60546875 12.51171875 C-72.12608336 14.00824125 -72.12608336 14.00824125 -74.6875 16.1875 C-77 18 -77 18 -79 18 C-79 18.66 -79 19.32 -79 20 C-80.0209375 20.2475 -80.0209375 20.2475 -81.0625 20.5 C-86.08834188 23.06638734 -90.20973991 27.62921972 -92 33 C-90.79377981 35.2807688 -90.79377981 35.2807688 -89.0625 37.5625 C-86 41.81093394 -86 41.81093394 -86 44 C-85.34 44 -84.68 44 -84 44 C-83.67 45.98 -83.34 47.96 -83 50 C-82.34 50 -81.68 50 -81 50 C-80.16209211 51.78953185 -79.32980604 53.58169695 -78.5 55.375 C-78.0359375 56.37273437 -77.571875 57.37046875 -77.09375 58.3984375 C-76 61 -76 61 -76 63 C-74.35 63 -72.7 63 -71 63 C-71.99 64.65 -72.98 66.3 -74 68 C-75.32 67.67 -76.64 67.34 -78 67 C-78.2475 65.845 -78.495 64.69 -78.75 63.5 C-79.7093005 59.62853726 -81.18674527 56.33697751 -83.05859375 52.828125 C-84 51 -84 51 -85.0625 48.0625 C-85.5265625 47.0415625 -85.5265625 47.0415625 -86 46 C-86.99 45.67 -87.98 45.34 -89 45 C-90.28125 42.890625 -90.28125 42.890625 -91.5 40.25 C-93.15932383 36.69734514 -94.93593006 33.33611304 -97 30 C-81.28705152 13.46645267 -64.27848392 3.00840517 -42 -2 C-40.80528076 -2.26937378 -40.80528076 -2.26937378 -39.58642578 -2.54418945 C-26.9400644 -4.77288085 -12.15647854 -3.94649694 0 0 Z " fill="#E6A686" transform="translate(332,217)"/>
<path d="M0 0 C0.33 0 0.66 0 1 0 C0.98428955 1.13840332 0.9685791 2.27680664 0.95239258 3.44970703 C0.89741525 7.73999744 0.8634076 12.03025786 0.83520508 16.32080078 C0.82027087 18.16525537 0.79991605 20.00967543 0.77368164 21.85400391 C0.63343683 31.97912922 0.76190111 41.33422051 3.3503418 51.18310547 C3.97680042 53.89940746 4.12148984 56.22518485 4 59 C4.99 59.33 5.98 59.66 7 60 C7.625 61.85546875 7.625 61.85546875 8 64.1875 C8.75644856 68.21334489 10.05403924 71.37343676 12 75 C12 75.66 12 76.32 12 77 C12.66 77 13.32 77 14 77 C16.45596853 78.8419764 17.02276533 80.07436676 17.9375 83.0625 C18.68493863 86.08410196 18.68493863 86.08410196 20.9375 87.1875 C21.618125 87.455625 22.29875 87.72375 23 88 C23.43699219 88.45761719 23.87398438 88.91523438 24.32421875 89.38671875 C31.15732383 95.96497609 40.96089988 97.04653333 50 97 C54.8786458 96.99767306 54.8786458 96.99767306 59 95 C60.53677348 94.70265494 62.07977879 94.4372563 63.625 94.1875 C68.51070208 93.25522112 71.89540601 91.79461719 76 89 C76.33 88.34 76.66 87.68 77 87 C79.5625 86.375 79.5625 86.375 82 86 C82 85.34 82 84.68 82 84 C83.65 83.34 85.3 82.68 87 82 C87 82.66 87 83.32 87 84 C86.34 84 85.68 84 85 84 C85 84.66 85 85.32 85 86 C71.81456858 97.13748144 58.30936471 101.12467778 41.39501953 100.23828125 C32.50269496 99.35358107 24.2391803 94.25493581 18 88 C18 87.34 18 86.68 18 86 C17.34 86 16.68 86 16 86 C0.6747621 65.64663886 -5.80017593 38.8589525 -2.70117188 13.56054688 C-1.97948869 8.99996253 -1.04212099 4.49724832 0 0 Z " fill="#70ADC7" transform="translate(250,90)"/>
<path d="M0 0 C0.66 0 1.32 0 2 0 C2.08636719 0.70382812 2.17273438 1.40765625 2.26171875 2.1328125 C4.14339554 15.35633931 7.14904419 26.54164625 18 35 C32.1896336 45.53727229 47.80168345 49.14377647 65.24316406 46.68359375 C73.6426618 45.08072526 81.63346092 42.20309054 89.5234375 38.953125 C92 38 92 38 94 38 C94 37.34 94 36.68 94 36 C95.0725 35.566875 96.145 35.13375 97.25 34.6875 C100.17750767 33.44552705 102.48458941 31.95643046 105 30 C105.66 30 106.32 30 107 30 C105.51470506 33.78155363 103.50848605 35.33133545 100.16796875 37.56640625 C99.20439453 38.21673828 98.24082031 38.86707031 97.24804688 39.53710938 C95.73307617 40.53967773 95.73307617 40.53967773 94.1875 41.5625 C92.68993164 42.57086914 92.68993164 42.57086914 91.16210938 43.59960938 C88.45220073 45.41764935 85.7394704 47.22681647 83 49 C82.13544189 49.56195068 81.27088379 50.12390137 80.38012695 50.70288086 C77.43099845 52.31009388 75.30808139 52.23079638 72 52 C71.67 51.01 71.34 50.02 71 49 C70.07960938 49.15597656 69.15921875 49.31195313 68.2109375 49.47265625 C54.65495036 51.55713085 41.89341223 51.44936881 29 46 C28.67 45.34 28.34 44.68 28 44 C26.5459375 43.4740625 26.5459375 43.4740625 25.0625 42.9375 C19.06350765 40.52296781 12.89310915 35.34582735 9.70703125 29.71484375 C9.47371094 29.14894531 9.24039063 28.58304687 9 28 C8.34 28 7.68 28 7 28 C2.09974303 19.21333233 -0.58305134 10.10622328 0 0 Z " fill="#4A676D" transform="translate(205,449)"/>
<path d="M0 0 C1.40230641 0.87432231 2.78331691 1.78522579 4.125 2.75 C5.011875 3.306875 5.89875 3.86375 6.8125 4.4375 C17.43504495 15.06004495 21.93481988 28.27047541 22.3125 43 C22.13940189 56.96324721 18.59347492 70.90450905 11.125 82.75 C8.78863728 75.80448633 13.2437488 68.08219725 16.2578125 61.85546875 C20.79364007 50.84280632 19.40961003 33.56012489 15.125 22.75 C13.92124665 20.59705046 12.60104868 18.73503098 11.125 16.75 C11.125 15.76 11.125 14.77 11.125 13.75 C10.465 13.75 9.805 13.75 9.125 13.75 C6.125 9.36538462 6.125 9.36538462 6.125 6.75 C5.20267578 6.45996094 5.20267578 6.45996094 4.26171875 6.1640625 C3.45347656 5.90367187 2.64523437 5.64328125 1.8125 5.375 C1.01199219 5.11976563 0.21148437 4.86453125 -0.61328125 4.6015625 C-2.875 3.75 -2.875 3.75 -5.875 1.75 C-8.66658732 1.55308305 -11.33602451 1.47139512 -14.125 1.5 C-15.23294922 1.48839844 -15.23294922 1.48839844 -16.36328125 1.4765625 C-20.02920676 1.48949345 -23.22408996 1.73185302 -26.734375 2.828125 C-29.875 3.75 -29.875 3.75 -32.875 2.75 C-32.875 3.74 -32.875 4.73 -32.875 5.75 C-34.7734375 7.3203125 -34.7734375 7.3203125 -37.25 8.875 C-38.06210937 9.39320313 -38.87421875 9.91140625 -39.7109375 10.4453125 C-41.875 11.75 -41.875 11.75 -43.875 12.75 C-44.535 12.09 -45.195 11.43 -45.875 10.75 C-34.15797875 -1.21481324 -15.95590504 -7.65597237 0 0 Z " fill="#DC8B77" transform="translate(443.875,124.25)"/>
<path d="M0 0 C-0.66 0.66 -1.32 1.32 -2 2 C-3.50626953 1.3503125 -3.50626953 1.3503125 -5.04296875 0.6875 C-18.81723499 -5.02142599 -29.85163626 -5.74777277 -44 0 C-45.68372141 0.97100979 -47.35436078 1.96576146 -49 3 C-49.66 3.268125 -50.32 3.53625 -51 3.8125 C-53.46850621 5.27817556 -54.88787801 7.2578792 -56.6484375 9.48828125 C-58.74268435 11.8306903 -61.37303058 13.30341558 -64 15 C-64.9075 15.9075 -65.815 16.815 -66.75 17.75 C-67.4925 18.4925 -68.235 19.235 -69 20 C-69.66 20 -70.32 20 -71 20 C-71.99 23.465 -71.99 23.465 -73 27 C-74.32 27 -75.64 27 -77 27 C-77 26.34 -77 25.68 -77 25 C-76.34 25 -75.68 25 -75 25 C-74.6596875 23.94232422 -74.6596875 23.94232422 -74.3125 22.86328125 C-72.73549375 19.42296702 -70.56367599 16.9131109 -68 14.1875 C-67.26305908 13.40028564 -67.26305908 13.40028564 -66.51123047 12.59716797 C-49.39701783 -5.35322606 -22.12050361 -17.20483614 0 0 Z " fill="#93C3D2" transform="translate(345,17)"/>
<path d="M0 0 C0.71285156 0.47050781 1.42570313 0.94101562 2.16015625 1.42578125 C7.31769625 4.77852933 12.23958562 7.82384346 18 10 C17.67 10.66 17.34 11.32 17 12 C17.00922702 14.54713404 17.00922702 14.54713404 18 17 C20.15097933 18.18028284 20.15097933 18.18028284 23 19 C24.23494827 19.65589475 25.46363341 20.32365267 26.6875 21 C39.43817363 27.41122051 53.46705539 24.88050843 67 23 C67 22.34 67 21.68 67 21 C67.78503906 20.67386719 68.57007813 20.34773438 69.37890625 20.01171875 C70.95478516 19.35623047 70.95478516 19.35623047 72.5625 18.6875 C73.65949219 18.23375 74.75648438 17.78 75.88671875 17.3125 C78.24629312 16.31774845 80.55858701 15.27511603 82.875 14.1875 C86.15099792 12.94262079 88.52741512 12.74590842 92 13 C91.67 13.66 91.34 14.32 91 15 C89.68 15 88.36 15 87 15 C87 15.66 87 16.32 87 17 C69.40165669 24.77650764 48.31673364 32.11290839 29.1875 24.97265625 C28.465625 24.65167969 27.74375 24.33070313 27 24 C25.7625 23.47212891 25.7625 23.47212891 24.5 22.93359375 C15.87412268 18.94938517 6.71907184 12.72755541 1 5 C0.3125 2.2890625 0.3125 2.2890625 0 0 Z " fill="#AF7A6F" transform="translate(212,470)"/>
<path d="M0 0 C11.73528921 6.16102684 18.12236592 21.00401943 22.1875 33 C27.62437337 51.88119204 27.37437799 69.72937867 25 89 C22.96780512 85.59648662 22.63108961 82.6767073 22.375 78.75 C22.30023438 77.67234375 22.22546875 76.5946875 22.1484375 75.484375 C22.09945313 74.66453125 22.05046875 73.8446875 22 73 C22.66 73 23.32 73 24 73 C23.48879143 55.12628949 23.48879143 55.12628949 19 38 C18.69790353 36.6315288 18.426402 35.25590605 18.1875 33.875 C16.92793781 27.9170709 14.76265374 20.71715121 10.33984375 16.3671875 C9 15 9 15 9 12 C8.01 11.67 7.02 11.34 6 11 C5.3125 8.9375 5.3125 8.9375 5 7 C4.34 7 3.68 7 3 7 C3 6.34 3 5.68 3 5 C1.68 4.34 0.36 3.68 -1 3 C-0.67 2.01 -0.34 1.02 0 0 Z " fill="#89BAC8" transform="translate(346,18)"/>
<path d="M0 0 C5.27933798 1.07741592 8.06047841 2.67921398 11.99609375 6.2890625 C18.15562912 11.548081 25.43525513 15.36473171 32.6953125 18.8671875 C35.886512 20.43574319 38.93414821 22.2004783 42 24 C42.33 23.34 42.66 22.68 43 22 C44.81892117 23.42936639 46.62995881 24.86876965 48.4375 26.3125 C49.44683594 27.11300781 50.45617187 27.91351563 51.49609375 28.73828125 C54 31 54 31 55 34 C48.42687797 32.09487409 42.7957946 29.44940477 36.9375 25.9375 C36.11967041 25.45506836 35.30184082 24.97263672 34.45922852 24.47558594 C1.68040911 5.04122733 1.68040911 5.04122733 0 0 Z " fill="#74AFC8" transform="translate(164,483)"/>
<path d="M0 0 C2.25 1.390625 2.25 1.390625 4.125 2.75 C5.07375 3.41 6.0225 4.07 7 4.75 C9.30532139 6.91971425 11.22705299 9.21940399 13.125 11.75 C12.795 12.41 12.465 13.07 12.125 13.75 C11.135 13.75 10.145 13.75 9.125 13.75 C6.125 9.52777778 6.125 9.52777778 6.125 6.75 C5.20267578 6.45996094 5.20267578 6.45996094 4.26171875 6.1640625 C3.45347656 5.90367187 2.64523437 5.64328125 1.8125 5.375 C1.01199219 5.11976563 0.21148437 4.86453125 -0.61328125 4.6015625 C-2.875 3.75 -2.875 3.75 -5.875 1.75 C-8.66658732 1.55308305 -11.33602451 1.47139512 -14.125 1.5 C-15.23294922 1.48839844 -15.23294922 1.48839844 -16.36328125 1.4765625 C-20.02920676 1.48949345 -23.22408996 1.73185302 -26.734375 2.828125 C-29.875 3.75 -29.875 3.75 -32.875 2.75 C-32.875 3.74 -32.875 4.73 -32.875 5.75 C-34.7734375 7.3203125 -34.7734375 7.3203125 -37.25 8.875 C-38.06210937 9.39320313 -38.87421875 9.91140625 -39.7109375 10.4453125 C-41.875 11.75 -41.875 11.75 -43.875 12.75 C-44.535 12.09 -45.195 11.43 -45.875 10.75 C-34.15797875 -1.21481324 -15.95590504 -7.65597237 0 0 Z " fill="#E5967A" transform="translate(443.875,124.25)"/>
<path d="M0 0 C0.33 0 0.66 0 1 0 C1.05469084 2.0205228 1.09310129 4.04148888 1.125 6.0625 C1.14820313 7.18785156 1.17140625 8.31320313 1.1953125 9.47265625 C1 13 1 13 0.015625 16.2890625 C-1.28122342 21.02754712 -1.38198367 25.42174844 -1.375 30.3125 C-1.37693359 31.70819214 -1.37693359 31.70819214 -1.37890625 33.13208008 C-1.27502594 39.85773969 -0.1756568 45.03146645 3 51 C3 51.66 3 52.32 3 53 C3.66 53 4.32 53 5 53 C5 54.65 5 56.3 5 58 C5.66 58 6.32 58 7 58 C8.296875 59.42578125 8.296875 59.42578125 9.75 61.3125 C12.48547424 64.65287027 15.06845058 66.17137237 19 68 C19.33 68.99 19.66 69.98 20 71 C12.01463185 69.20329217 5.96241984 62.95468115 1.41210938 56.37915039 C-3.72563151 47.72298079 -4.65796203 38.55237007 -4.5 28.6875 C-4.48839844 26.92442505 -4.48839844 26.92442505 -4.4765625 25.12573242 C-4.29987506 16.23062396 -3.12948286 8.34063065 0 0 Z " fill="#D77362" transform="translate(379,162)"/>
<path d="M0 0 C0.33 0 0.66 0 1 0 C1 2.97 1 5.94 1 9 C1.99 9.33 2.98 9.66 4 10 C3.67 10.66 3.34 11.32 3 12 C3.66 12 4.32 12 5 12 C5.16435547 12.97839844 5.16435547 12.97839844 5.33203125 13.9765625 C6.26508962 19.1197623 7.34784083 23.41899779 10 28 C9.34 28 8.68 28 8 28 C8.33773437 28.85722656 8.67546875 29.71445312 9.0234375 30.59765625 C12.79691389 40.27127924 12.79691389 40.27127924 14.0625 44.8125 C15.23956565 48.8145232 17.03751371 52.33224649 19 56 C18.34 56.66 17.68 57.32 17 58 C13.54720292 55.24822536 12.23083762 51.41292183 10.625 47.4375 C10.32118408 46.69242187 10.01736816 45.94734375 9.7043457 45.1796875 C6.45607431 36.98073225 4.08920686 28.55967256 2 20 C1.81018555 19.23502197 1.62037109 18.47004395 1.42480469 17.68188477 C0.39924389 13.35852199 -0.23820206 9.4089815 -0.125 4.9375 C-0.10695312 3.99777344 -0.08890625 3.05804688 -0.0703125 2.08984375 C-0.04710937 1.40019531 -0.02390625 0.71054687 0 0 Z " fill="#6FAAC7" transform="translate(64,334)"/>
<path d="M0 0 C0.33 0.99 0.66 1.98 1 3 C0.33613281 3.58007812 -0.32773437 4.16015625 -1.01171875 4.7578125 C-8.36667486 11.2645328 -13.69960819 16.23517017 -17.0078125 25.6328125 C-18 28 -18 28 -19.5300293 29.80908203 C-21.34252245 32.51051261 -21.42194281 34.18994119 -21.51171875 37.421875 C-21.54716797 38.44667969 -21.58261719 39.47148437 -21.61914062 40.52734375 C-21.64169922 41.59082031 -21.66425781 42.65429688 -21.6875 43.75 C-21.73874023 45.36841797 -21.73874023 45.36841797 -21.79101562 47.01953125 C-21.87340663 49.67958377 -21.94258645 52.33931035 -22 55 C-22.33 55 -22.66 55 -23 55 C-24.3943945 39.10390267 -24.69483138 24.55698124 -14.625 11.0625 C-5.31457182 0 -5.31457182 0 0 0 Z " fill="#4E8D93" transform="translate(29,125)"/>
<path d="M0 0 C0.66 0.33 1.32 0.66 2 1 C1.67 1.99 1.34 2.98 1 4 C0.29875 4.226875 -0.4025 4.45375 -1.125 4.6875 C-5.4811579 6.67618078 -8.18775601 10.18230319 -11 14 C-11.33 14.99 -11.66 15.98 -12 17 C-10.79377981 19.2807688 -10.79377981 19.2807688 -9.0625 21.5625 C-6 25.81093394 -6 25.81093394 -6 28 C-5.34 28 -4.68 28 -4 28 C-3.67 29.98 -3.34 31.96 -3 34 C-2.34 34 -1.68 34 -1 34 C-0.16209211 35.78953185 0.67019396 37.58169695 1.5 39.375 C1.9640625 40.37273437 2.428125 41.37046875 2.90625 42.3984375 C4 45 4 45 4 47 C5.65 47 7.3 47 9 47 C8.01 48.65 7.02 50.3 6 52 C4.68 51.67 3.36 51.34 2 51 C1.7525 49.845 1.505 48.69 1.25 47.5 C0.2906995 43.62853726 -1.18674527 40.33697751 -3.05859375 36.828125 C-4 35 -4 35 -5.0625 32.0625 C-5.5265625 31.0415625 -5.5265625 31.0415625 -6 30 C-6.99 29.67 -7.98 29.34 -9 29 C-10.28125 26.890625 -10.28125 26.890625 -11.5 24.25 C-13.15932383 20.69734514 -14.93593006 17.33611304 -17 14 C-15.30098781 12.21936266 -13.59172724 10.45092578 -11.875 8.6875 C-11.400625 8.18798828 -10.92625 7.68847656 -10.4375 7.17382812 C-7.26118599 3.93312937 -4.29892881 1.6866902 0 0 Z " fill="#C79174" transform="translate(252,233)"/>
<path d="M0 0 C1.32 0.33 2.64 0.66 4 1 C4.33 2.32 4.66 3.64 5 5 C5.66 5 6.32 5 7 5 C7 5.66 7 6.32 7 7 C7.66 7 8.32 7 9 7 C9 7.66 9 8.32 9 9 C9.99 9 10.98 9 12 9 C12.33 10.32 12.66 11.64 13 13 C13.66 13 14.32 13 15 13 C15.33 14.32 15.66 15.64 16 17 C16.598125 17.103125 17.19625 17.20625 17.8125 17.3125 C20.31258286 18.09824033 21.37535082 18.96918853 23 21 C23 21.66 23 22.32 23 23 C24.32 23.33 25.64 23.66 27 24 C27 24.66 27 25.32 27 26 C27.66 26 28.32 26 29 26 C29 26.66 29 27.32 29 28 C29.99 28.33 30.98 28.66 32 29 C33.68873879 30.64429829 35.35305515 32.31384218 37 34 C38.64864545 35.35555293 40.31003995 36.69631653 42 38 C38.62846216 38.39557754 37.24205529 38.15744304 34.3515625 36.27734375 C33.45179688 35.50519531 32.55203125 34.73304688 31.625 33.9375 C30.66207031 33.11378906 29.69914062 32.29007812 28.70703125 31.44140625 C25.92430469 28.93173222 23.25936506 26.35768028 20.66015625 23.66015625 C18.93321125 21.93321125 17.12117609 20.38126379 15.25 18.8125 C11.60404749 15.66176545 8.28379201 12.26978156 5 8.75 C4.50661133 8.23026611 4.01322266 7.71053223 3.50488281 7.17504883 C0 3.35700858 0 3.35700858 0 0 Z " fill="#71ABC7" transform="translate(112,436)"/>
<path d="M0 0 C0 0.33 0 0.66 0 1 C-8.91 1.99 -17.82 2.98 -27 4 C-27 4.99 -27 5.98 -27 7 C-27.58007812 7.18175781 -28.16015625 7.36351562 -28.7578125 7.55078125 C-36.35662753 9.9959445 -43.50744341 13.00638006 -49.625 18.25 C-50.40875 18.8275 -51.1925 19.405 -52 20 C-52.99 19.67 -53.98 19.34 -55 19 C-55.99 19 -56.98 19 -58 19 C-43.17478016 6.89777973 -19.62516849 -4.7576166 0 0 Z " fill="#E8AC8C" transform="translate(307,215)"/>
<path d="M0 0 C6.91304642 5.36113804 12.41957377 11.75020218 15.75 19.9375 C16.97125575 22.9295766 17.78729701 23.83100472 20 26 C23.58196304 31.08064787 26.54481671 36.04130862 27.5 42.25 C27.7475 43.61125 27.7475 43.61125 28 45 C28.66 45.33 29.32 45.66 30 46 C29.67 46.99 29.34 47.98 29 49 C24.99048823 46.78785558 23.98027236 44.05097769 22.515625 39.9375 C22 38 22 38 22 35 C21.34 35 20.68 35 20 35 C18.74335022 32.09399739 18 30.20395416 18 27 C17.34 27 16.68 27 16 27 C15.16180842 25.37750059 14.3295884 23.75191503 13.5 22.125 C13.0359375 21.22007812 12.571875 20.31515625 12.09375 19.3828125 C11 17 11 17 11 15 C10.34 15 9.68 15 9 15 C5.42218135 11.54177417 2.22455632 7.44911265 0 3 C0 2.01 0 1.02 0 0 Z " fill="#719B97" transform="translate(227,239)"/>
<path d="M0 0 C0.33 0 0.66 0 1 0 C1.51137226 6.90352555 -0.13035626 11.74827614 -3 18 C-3.66 18 -4.32 18 -5 18 C-5.24878906 18.50789063 -5.49757813 19.01578125 -5.75390625 19.5390625 C-7.76347159 23.50779655 -9.88619722 27.41672914 -11.99023438 31.3359375 C-13.60057489 34.34433259 -15.17624872 37.35575377 -16.69140625 40.4140625 C-18 43 -18 43 -19 44 C-20.66617115 44.04063832 -22.33388095 44.042721 -24 44 C-22.60266106 41.01050083 -20.95441631 38.46693562 -19 35.8125 C-11.09835735 24.60473072 -4.31508287 13.05880343 0 0 Z " fill="#E49E87" transform="translate(350,368)"/>
<path d="M0 0 C12.11661959 9.21916708 19.64962476 22.4249225 26 36 C26 36.66 26 37.32 26 38 C23 37 23 37 21 34 C21 33.01 21 32.02 21 31 C20.01 30.67 19.02 30.34 18 30 C16.69519135 26.73797837 15.78933188 23.42043815 15 20 C14.34 20 13.68 20 13 20 C13 19.34 13 18.68 13 18 C12.34 18 11.68 18 11 18 C11 17.34 11 16.68 11 16 C10.01 16 9.02 16 8 16 C8 14.35 8 12.7 8 11 C7.38125 10.7525 6.7625 10.505 6.125 10.25 C3.59641373 8.76259631 3.28160996 7.56321991 2 5 C-0.0335948 3.73195434 -0.0335948 3.73195434 -2 3 C-1 1 -1 1 0 0 Z " fill="#E59F83" transform="translate(373,240)"/>
<path d="M0 0 C-2.28415539 5.82335005 -7.95080923 8.45334398 -12.9375 11.8125 C-13.95263672 12.51826172 -14.96777344 13.22402344 -16.01367188 13.95117188 C-16.98755859 14.61310547 -17.96144531 15.27503906 -18.96484375 15.95703125 C-19.8580835 16.56522705 -20.75132324 17.17342285 -21.67163086 17.80004883 C-22.43999268 18.19603271 -23.20835449 18.5920166 -24 19 C-24.99 18.67 -25.98 18.34 -27 18 C-24.94766315 15.7522025 -23.99332739 14.9977758 -21 14 C-24.38317575 14.61894689 -27.5532521 15.47257381 -30.8125 16.5625 C-35.40993772 17.98239831 -39.2113666 18.26603519 -44 18 C-44 17.67 -44 17.34 -44 17 C-42.99582031 16.76925781 -41.99164063 16.53851563 -40.95703125 16.30078125 C-32.84370231 14.38355638 -25.19796207 12.13365187 -17.4765625 8.953125 C-15 8 -15 8 -13 8 C-13 7.34 -13 6.68 -13 6 C-11.9275 5.566875 -10.855 5.13375 -9.75 4.6875 C-6.46680082 3.29462762 -3.4486686 0 0 0 Z " fill="#586468" transform="translate(312,479)"/>
<path d="M0 0 C0.99 0.33 1.98 0.66 3 1 C3 4 3 4 1.42578125 5.61328125 C0.72839844 6.17402344 0.03101563 6.73476563 -0.6875 7.3125 C-4.79488497 10.75834155 -8.67712372 14.1888879 -11 19.125 C-12.43224603 21.81046131 -14.58055807 23.21725331 -17 25 C-17.66 24.67 -18.32 24.34 -19 24 C-17.30182725 14.02032726 -7.35379435 6.10304654 0 0 Z " fill="#368D90" transform="translate(128,15)"/>
<path d="M0 0 C0.33 0 0.66 0 1 0 C1.03758423 1.35194458 1.03758423 1.35194458 1.07592773 2.73120117 C1.17221546 6.14013609 1.27136027 9.54896492 1.37231445 12.95776367 C1.41509012 14.42094782 1.45679271 15.88416381 1.49731445 17.34741211 C1.31681108 32.91840644 1.31681108 32.91840644 4 48 C3.0625 50.1875 3.0625 50.1875 2 52 C1.51402847 50.02249322 1.03661243 48.0428835 0.5625 46.0625 C0.29566406 44.96035156 0.02882813 43.85820313 -0.24609375 42.72265625 C-1.92295984 34.4425869 -2.13166027 26.3697328 -2.0625 17.9375 C-2.05798828 16.88111328 -2.05347656 15.82472656 -2.04882812 14.73632812 C-2.03715918 12.15749092 -2.02078885 9.57877706 -2 7 C-1.34 7 -0.68 7 0 7 C0 4.69 0 2.38 0 0 Z " fill="#387B82" transform="translate(101,66)"/>
<path d="M0 0 C0.33 0 0.66 0 1 0 C4.07511055 11.61403359 4.11846825 24.8598044 -1 36 C-2.485 36.495 -2.485 36.495 -4 37 C-5.44514024 33.13995435 -4.52198984 30.27794395 -3.5 26.375 C-2.07036796 22.09048177 -2.07036796 22.09048177 -3 18 C-2.70351562 17.27425781 -2.40703125 16.54851562 -2.1015625 15.80078125 C-0.81096936 12.51937954 -0.58787866 9.69999783 -0.375 6.1875 C-0.26285156 4.44533203 -0.26285156 4.44533203 -0.1484375 2.66796875 C-0.09945312 1.78753906 -0.05046875 0.90710938 0 0 Z " fill="#276270" transform="translate(94,178)"/>
<path d="M0 0 C2.738397 4.10759549 3.72612836 8.40380383 5.0625 13.125 C5.33126953 14.03765625 5.60003906 14.9503125 5.87695312 15.890625 C8.82602215 26.21604372 9.1395403 35.85389897 9.0625 46.5625 C9.05798828 47.76197266 9.05347656 48.96144531 9.04882812 50.19726562 C9.03713769 53.13156359 9.02075138 56.06575449 9 59 C8.67 59 8.34 59 8 59 C7.93006836 58.16041748 7.86013672 57.32083496 7.78808594 56.45581055 C5.93886105 34.5381217 5.93886105 34.5381217 1.8671875 12.9453125 C0.84829661 8.67205367 0.39675988 4.36942913 0 0 Z " fill="#DD9A85" transform="translate(399,278)"/>
<path d="M0 0 C0.66 0.33 1.32 0.66 2 1 C1.46058654 7.75973834 0.11479019 13.71236766 -2.0625 20.125 C-2.36833008 21.03282227 -2.67416016 21.94064453 -2.98925781 22.87597656 C-5.02716689 28.71414393 -7.35970713 34.28268122 -10.25 39.75 C-10.5787915 40.37535645 -10.90758301 41.00071289 -11.24633789 41.64501953 C-13.60301274 45.86767091 -13.60301274 45.86767091 -17 47 C-15.63791113 43.39324428 -14.00567677 39.97730102 -12.28344727 36.53027344 C-6.59177816 25.00440819 -2.24443956 12.69269269 0 0 Z " fill="#7AADC2" transform="translate(368,106)"/>
<path d="M0 0 C0.71285156 0.47050781 1.42570313 0.94101562 2.16015625 1.42578125 C7.31769625 4.77852933 12.23958562 7.82384346 18 10 C17.67 10.66 17.34 11.32 17 12 C17.00922702 14.54713404 17.00922702 14.54713404 18 17 C20.47636012 18.37466625 20.47636012 18.37466625 23 19 C23 19.33 23 19.66 23 20 C19.8264232 20.32187523 18.32033446 20.19827776 15.5703125 18.49609375 C13.02474453 16.35309962 10.49011001 14.20740701 8 12 C7.28457031 11.36835938 6.56914062 10.73671875 5.83203125 10.0859375 C2.29787556 6.7776763 0.6798472 4.92679393 0 0 Z " fill="#DB7A66" transform="translate(212,470)"/>
<path d="M0 0 C0.33 0 0.66 0 1 0 C0.5067649 7.06970306 -2.02478696 13.60468225 -5 20 C-5.66 20.33 -6.32 20.66 -7 21 C-7.91574774 23.4331887 -8.73442166 25.83249015 -9.5 28.3125 C-12.08925856 36.5588962 -12.08925856 36.5588962 -14 40 C-15.61256455 34.2408409 -14.15083896 30.41464691 -12.0625 25.0625 C-11.74982178 24.23580811 -11.43714355 23.40911621 -11.11499023 22.55737305 C-8.04809123 14.68327057 -4.20952383 7.31473101 0 0 Z " fill="#7DB6CC" transform="translate(267,44)"/>
<path d="M0 0 C1.65 0 3.3 0 5 0 C0.75188234 5.12930616 -3.72728977 9.74254556 -8.625 14.25 C-9.27984375 14.86101562 -9.9346875 15.47203125 -10.609375 16.1015625 C-19.12865038 24 -19.12865038 24 -22 24 C-22 23.01 -22 22.02 -22 21 C-21.38125 20.7525 -20.7625 20.505 -20.125 20.25 C-17.64931313 18.79371361 -17.04874998 17.62187494 -16 15 C-15.34 15 -14.68 15 -14 15 C-14 14.34 -14 13.68 -14 13 C-13.01 12.67 -12.02 12.34 -11 12 C-10.3503125 10.824375 -10.3503125 10.824375 -9.6875 9.625 C-7.58737819 6.35814385 -5.43468599 5.68080378 -2 4 C-0.59533047 1.94906855 -0.59533047 1.94906855 0 0 Z " fill="#DD7D6D" transform="translate(346,447)"/>
<path d="M0 0 C5.61 0 11.22 0 17 0 C17.66 1.32 18.32 2.64 19 4 C18.1181604 3.97643433 18.1181604 3.97643433 17.21850586 3.95239258 C6.13561485 3.69625946 -4.29392051 3.72077172 -15.1015625 6.34375 C-18 7 -18 7 -22 7 C-22 6.34 -22 5.68 -22 5 C-20.83082031 4.79503906 -19.66164063 4.59007812 -18.45703125 4.37890625 C-16.90884878 4.10680145 -15.360672 3.83466433 -13.8125 3.5625 C-13.04357422 3.42779297 -12.27464844 3.29308594 -11.48242188 3.15429688 C-7.64534426 2.47910296 -3.81600432 1.78767223 0 1 C0 0.67 0 0.34 0 0 Z " fill="#E3A17D" transform="translate(302,214)"/>
<path d="M0 0 C2.92320159 1.4616008 3.3315999 3.55788252 4.6875 6.5 C6.70537877 10.6795376 8.79229945 14.23732543 11.75 17.8125 C14.78615188 21.48537247 16.10658691 24.33439829 17 29 C13.16023948 27.51930804 11.78056319 25.54427814 9.6875 22.0625 C7.83006617 18.99632398 5.97705909 15.96635626 3.95703125 13.00390625 C2.98830078 11.57884766 2.98830078 11.57884766 2 10.125 C1.401875 9.26132812 0.80375 8.39765625 0.1875 7.5078125 C-1.23302378 4.50789058 -0.98156701 3.11201358 0 0 Z " fill="#79AEC8" transform="translate(83,392)"/>
<path d="M0 0 C0.99 0 1.98 0 3 0 C8.77555552 15.06759318 10.0979134 30.00744478 8 46 C7.67 46 7.34 46 7 46 C6.9906543 45.42781738 6.98130859 44.85563477 6.97167969 44.26611328 C6.65824806 28.87416199 5.0897252 14.60728309 0 0 Z " fill="#DB7C61" transform="translate(352,295)"/>
<path d="M0 0 C0.7734375 0.3403125 0.7734375 0.3403125 1.5625 0.6875 C-0.48983685 2.9352975 -1.44417261 3.6897242 -4.4375 4.6875 C-4.4375 5.3475 -4.4375 6.0075 -4.4375 6.6875 C-7.8727048 8.97763653 -9.422831 8.86592973 -13.4375 8.6875 C-13.7675 7.6975 -14.0975 6.7075 -14.4375 5.6875 C-19.3875 6.3475 -24.3375 7.0075 -29.4375 7.6875 C-29.4375 7.0275 -29.4375 6.3675 -29.4375 5.6875 C-28.58369751 5.57474731 -28.58369751 5.57474731 -27.71264648 5.4597168 C-25.09858686 5.10850314 -22.48690624 4.74187153 -19.875 4.375 C-18.97974609 4.25705078 -18.08449219 4.13910156 -17.16210938 4.01757812 C-11.88494694 3.26369778 -4.89187112 -0.62716296 0 0 Z " fill="#2C6B7A" transform="translate(290.4375,492.3125)"/>
<path d="M0 0 C-0.33 0.99 -0.66 1.98 -1 3 C-1.66 3 -2.32 3 -3 3 C-3.309375 3.928125 -3.309375 3.928125 -3.625 4.875 C-5 7 -5 7 -7.4375 8.25 C-14.22304268 9.6785353 -20.61729864 9.90857277 -27 7 C-27 6.67 -27 6.34 -27 6 C-25.54980469 5.97873047 -25.54980469 5.97873047 -24.0703125 5.95703125 C-16.3534177 5.67433312 -10.65691052 5.08021677 -3.85546875 1.05859375 C-2 0 -2 0 0 0 Z " fill="#DD7B67" transform="translate(254,475)"/>
<path d="M0 0 C0.33 0 0.66 0 1 0 C2.46739522 11.94878968 2.0947251 23.98594227 2 36 C1.67 36 1.34 36 1 36 C0.67 34.02 0.34 32.04 0 30 C-0.433125 31.03125 -0.86625 32.0625 -1.3125 33.125 C-2.74912525 36.48396666 -4.33421945 39.74776178 -6 43 C-6.33 42.34 -6.66 41.68 -7 41 C-6.35709929 39.18838244 -5.70450424 37.37964201 -5.00439453 35.58935547 C-0.46587021 23.83858428 0.02339378 12.49562084 0 0 Z " fill="#5AABC7" transform="translate(155,317)"/>
<path d="M0 0 C0.33 0 0.66 0 1 0 C1 2.97 1 5.94 1 9 C1.99 9.33 2.98 9.66 4 10 C3.67 10.66 3.34 11.32 3 12 C3.66 12 4.32 12 5 12 C5.16435547 12.97839844 5.16435547 12.97839844 5.33203125 13.9765625 C6.26508962 19.1197623 7.34784083 23.41899779 10 28 C9.34 28 8.68 28 8 28 C7.67 28.99 7.34 29.98 7 31 C6.67 29.02 6.34 27.04 6 25 C5.01 25 4.02 25 3 25 C0.92686581 16.54704214 -0.48032656 8.71703754 0 0 Z " fill="#6BA1B4" transform="translate(64,334)"/>
<path d="M0 0 C0.99 0 1.98 0 3 0 C1.58771468 5.75601691 -0.65291512 10.65671494 -3.4375 15.875 C-3.83259766 16.64585937 -4.22769531 17.41671875 -4.63476562 18.2109375 C-5.02212891 18.943125 -5.40949219 19.6753125 -5.80859375 20.4296875 C-6.15720459 21.09210449 -6.50581543 21.75452148 -6.86499023 22.43701172 C-8 24 -8 24 -11 25 C-10.57630928 23.3713449 -10.1355377 21.74712622 -9.6875 20.125 C-9.44386719 19.22007812 -9.20023437 18.31515625 -8.94921875 17.3828125 C-8 15 -8 15 -5 13 C-3.98247445 10.35952748 -3.98247445 10.35952748 -3.3125 7.375 C-3.06113281 6.37210937 -2.80976563 5.36921875 -2.55078125 4.3359375 C-2.36902344 3.56507813 -2.18726563 2.79421875 -2 2 C-1.34 2 -0.68 2 0 2 C0 1.34 0 0.68 0 0 Z " fill="#E59381" transform="translate(394,378)"/>
<path d="M0 0 C-0.33 0.66 -0.66 1.32 -1 2 C-3.475 1.505 -3.475 1.505 -6 1 C-6 1.66 -6 2.32 -6 3 C-7.093125 3.103125 -8.18625 3.20625 -9.3125 3.3125 C-12.9219265 3.6151716 -12.9219265 3.6151716 -14.5 5.5625 C-16 7 -16 7 -19.6875 7.1875 C-20.780625 7.125625 -21.87375 7.06375 -23 7 C-23.061875 7.61875 -23.12375 8.2375 -23.1875 8.875 C-24 11 -24 11 -26.5625 12.25 C-27.366875 12.4975 -28.17125 12.745 -29 13 C-29 12.34 -29 11.68 -29 11 C-29.66 10.67 -30.32 10.34 -31 10 C-7.74507532 -2.58169177 -7.74507532 -2.58169177 0 0 Z " fill="#629EA6" transform="translate(147,217)"/>
<path d="M0 0 C5.23435005 4.27293882 9.67106815 8.81580806 14 14 C13.67 14.66 13.34 15.32 13 16 C12.01 16.33 11.02 16.66 10 17 C9.34 15.35 8.68 13.7 8 12 C7.34 12 6.68 12 6 12 C2 7.52941176 2 7.52941176 2 5 C1.34 5 0.68 5 0 5 C0 3.35 0 1.7 0 0 Z " fill="#4D8C91" transform="translate(187,25)"/>
<path d="M0 0 C1.98 0 3.96 0 6 0 C0.65178269 7.27708257 -7.12862741 12.22572548 -16 14 C-16.33 13.01 -16.66 12.02 -17 11 C-16.22914063 10.74605469 -15.45828125 10.49210938 -14.6640625 10.23046875 C-13.66117187 9.88628906 -12.65828125 9.54210937 -11.625 9.1875 C-10.62726563 8.85105469 -9.62953125 8.51460937 -8.6015625 8.16796875 C-5.7154291 7.1493425 -5.7154291 7.1493425 -4 4 C-3.01 3.67 -2.02 3.34 -1 3 C-0.67 2.01 -0.34 1.02 0 0 Z " fill="#E08C7E" transform="translate(438,220)"/>
<path d="M0 0 C11.08014794 -0.39782446 21.18075485 0.58293459 32 3 C28.68997251 5.01849807 26.56669681 5.14005119 22.75 4.6875 C21.78964844 4.57921875 20.82929688 4.4709375 19.83984375 4.359375 C18.90269531 4.24078125 17.96554688 4.1221875 17 4 C16.17628906 3.90203125 15.35257813 3.8040625 14.50390625 3.703125 C12.6677999 3.48056665 10.83362191 3.24217648 9 3 C9 2.67 9 2.34 9 2 C6.03 1.67 3.06 1.34 0 1 C0 0.67 0 0.34 0 0 Z " fill="#78B1B5" transform="translate(157,214)"/>
<path d="M0 0 C1.76923828 0.01353516 1.76923828 0.01353516 3.57421875 0.02734375 C4.47785156 0.03894531 5.38148438 0.05054688 6.3125 0.0625 C2.26430485 3.53822311 0.63365314 4.27534613 -4.6875 4.0625 C-7.08141343 4.59340822 -9.34799257 5.31385762 -11.6875 6.0625 C-11.6875 5.4025 -11.6875 4.7425 -11.6875 4.0625 C-14.3275 4.7225 -16.9675 5.3825 -19.6875 6.0625 C-18.6875 4.0625 -18.6875 4.0625 -16.7265625 3.24609375 C-15.92992187 2.99988281 -15.13328125 2.75367188 -14.3125 2.5 C-13.52101562 2.25121094 -12.72953125 2.00242187 -11.9140625 1.74609375 C-10.81191406 1.40771484 -10.81191406 1.40771484 -9.6875 1.0625 C-6.26517028 -0.07827657 -3.60076783 -0.03565117 0 0 Z " fill="#609DA1" transform="translate(150.6875,8.9375)"/>
<path d="M0 0 C0.66 0.33 1.32 0.66 2 1 C1.67 1.99 1.34 2.98 1 4 C0.29875 4.226875 -0.4025 4.45375 -1.125 4.6875 C-5.85101695 6.84502948 -9.67472776 11.34945551 -12 16 C-12.99 16 -13.98 16 -15 16 C-13.69529517 10.05634465 -10.56124604 6.76468748 -6 3 C-2.6875 1 -2.6875 1 0 0 Z " fill="#DB997D" transform="translate(252,233)"/>
<path d="M0 0 C-0.33 0.66 -0.66 1.32 -1 2 C-2.32 2 -3.64 2 -5 2 C-5 2.66 -5 3.32 -5 4 C-18.16207277 10.16097023 -18.16207277 10.16097023 -25 8 C-24.21496094 7.67386719 -23.42992187 7.34773438 -22.62109375 7.01171875 C-21.57050781 6.57472656 -20.51992188 6.13773437 -19.4375 5.6875 C-18.34050781 5.23375 -17.24351562 4.78 -16.11328125 4.3125 C-13.75370688 3.31774845 -11.44141299 2.27511603 -9.125 1.1875 C-5.84900208 -0.05737921 -3.47258488 -0.25409158 0 0 Z " fill="#C17567" transform="translate(304,483)"/>
<path d="M0 0 C0.86238281 0.13277344 1.72476563 0.26554687 2.61328125 0.40234375 C13.06256332 1.91401391 23.45485354 2.56865924 34 3 C34 3.33 34 3.66 34 4 C22.06404865 6.27351454 11.36297921 5.22808529 0 1 C0 0.67 0 0.34 0 0 Z " fill="#38606A" transform="translate(234,494)"/>
<path d="M0 0 C2.475 0.495 2.475 0.495 5 1 C5 2.65 5 4.3 5 6 C5.66 6 6.32 6 7 6 C8.296875 7.42578125 8.296875 7.42578125 9.75 9.3125 C12.48547424 12.65287027 15.06845058 14.17137237 19 16 C19.33 16.99 19.66 17.98 20 19 C11.45311766 17.07695147 6.03463065 10.47241224 1.03125 3.69921875 C0 2 0 2 0 0 Z " fill="#E18677" transform="translate(379,214)"/>
<path d="M0 0 C0.66 0 1.32 0 2 0 C2.10957031 0.78503906 2.21914062 1.57007813 2.33203125 2.37890625 C3.29509475 9.28873245 3.29509475 9.28873245 5.625 15.8125 C7.1868694 19.43319724 7.23891233 22.09776535 7 26 C3.53001907 24.26500954 3.10442013 20.29402424 1.88671875 16.78125 C0.07081757 11.08555996 -0.1020414 5.91840128 0 0 Z " fill="#366E7A" transform="translate(205,449)"/>
<path d="M0 0 C0.33 0.66 0.66 1.32 1 2 C0.04606985 3.74338959 -0.91607444 5.4835764 -1.9453125 7.18359375 C-3.21470518 9.36977003 -4.0985503 11.64236233 -5 14 C-6 15 -6 15 -8.5625 15.0625 C-9.366875 15.041875 -10.17125 15.02125 -11 15 C-9.4628015 11.70270923 -7.57926258 8.79483213 -5.5 5.8125 C-4.8915625 4.93207031 -4.283125 4.05164063 -3.65625 3.14453125 C-2 1 -2 1 0 0 Z " fill="#E38C73" transform="translate(337,397)"/>
<path d="M0 0 C0.33 0 0.66 0 1 0 C1.21908649 6.02487844 0.49398047 11.17549506 -1 17 C-1.19078125 17.77472656 -1.3815625 18.54945313 -1.578125 19.34765625 C-2.04384543 21.23382399 -2.52074817 23.11722494 -3 25 C-3.99 25 -4.98 25 -6 25 C-4.51999939 16.44538652 -3.05964831 8.15906215 0 0 Z " fill="#DF927B" transform="translate(406,337)"/>
<path d="M0 0 C3.04190863 -0.05421223 6.08283999 -0.09377548 9.125 -0.125 C9.9809375 -0.14175781 10.836875 -0.15851563 11.71875 -0.17578125 C16.56587293 -0.21306681 20.44707905 0.10419357 25 2 C25 2.99 25 3.98 25 5 C24.27296875 4.86722656 23.5459375 4.73445313 22.796875 4.59765625 C16.28949594 3.45469352 9.90051084 2.68614842 3.30078125 2.34375 C2.54152344 2.2303125 1.78226562 2.116875 1 2 C0.67 1.34 0.34 0.68 0 0 Z " fill="#E28577" transform="translate(296,260)"/>
<path d="M0 0 C4.20216371 2.80144247 5.31252852 6.34382869 7 11 C7.3564309 12.99601306 7.69922675 14.994845 8 17 C8.66 17.33 9.32 17.66 10 18 C9.67 18.99 9.34 19.98 9 21 C5.00463529 18.82303846 4.12162616 16.28082031 2.87109375 12.14648438 C2.66613281 11.41751953 2.46117187 10.68855469 2.25 9.9375 C2.02957031 9.20466797 1.80914062 8.47183594 1.58203125 7.71679688 C0 2.36638684 0 2.36638684 0 0 Z " fill="#9B9685" transform="translate(247,267)"/>
<path d="M0 0 C0 0.33 0 0.66 0 1 C-1.0355603 1.12846313 -1.0355603 1.12846313 -2.09204102 1.25952148 C-5.2489431 1.65152048 -8.40572211 2.04450217 -11.5625 2.4375 C-12.64853516 2.57220703 -13.73457031 2.70691406 -14.85351562 2.84570312 C-20.24327704 3.51737552 -25.6268315 4.20597367 -31 5 C-28.11582372 2.11582372 -24.67160569 1.75577645 -20.8125 0.875 C-20.06935547 0.69324219 -19.32621094 0.51148438 -18.56054688 0.32421875 C-12.22410153 -1.15298937 -6.391691 -1.54950085 0 0 Z " fill="#E4B599" transform="translate(307,215)"/>
<path d="M0 0 C5.7858359 3.24571282 9.14729638 7.6654873 13 13 C12.67 13.66 12.34 14.32 12 15 C11.01 15 10.02 15 9 15 C9 14.01 9 13.02 9 12 C8.01 11.67 7.02 11.34 6 11 C5.3125 8.9375 5.3125 8.9375 5 7 C4.34 7 3.68 7 3 7 C3 6.34 3 5.68 3 5 C1.68 4.34 0.36 3.68 -1 3 C-0.67 2.01 -0.34 1.02 0 0 Z " fill="#99C3D1" transform="translate(346,18)"/>
<path d="M0 0 C0.33 0 0.66 0 1 0 C1.3690205 13.6332574 1.3690205 13.6332574 -1 20 C-1.99 19.67 -2.98 19.34 -4 19 C-3.37968409 12.42465139 -1.85102717 6.33307408 0 0 Z " fill="#E17964" transform="translate(379,162)"/>
<path d="M0 0 C0.99 0.66 1.98 1.32 3 2 C1.78521149 3.18163051 0.55247592 4.34482835 -0.6875 5.5 C-1.37199219 6.1496875 -2.05648438 6.799375 -2.76171875 7.46875 C-5.40656372 9.27813784 -6.86162389 9.3077917 -10 9 C-8.62845496 6.04590299 -7.01136276 3.55991624 -5 1 C-5 1.66 -5 2.32 -5 3 C-3.35 2.01 -1.7 1.02 0 0 Z " fill="#E0745E" transform="translate(267,271)"/>
<path d="M0 0 C0 0.33 0 0.66 0 1 C-0.96099609 1.16435547 -0.96099609 1.16435547 -1.94140625 1.33203125 C-10.37570776 2.87811036 -17.40367587 6.13520351 -25 10 C-25 9.01 -25 8.02 -25 7 C-9.67952128 -1.66888298 -9.67952128 -1.66888298 0 0 Z " fill="#E38C7D" transform="translate(296,262)"/>
<path d="M0 0 C6.76408042 2.25469347 11.86917024 6.21683834 16 12 C15.67 12.66 15.34 13.32 15 14 C14.01 14 13.02 14 12 14 C9 9.77777778 9 9.77777778 9 7 C8.071875 6.773125 7.14375 6.54625 6.1875 6.3125 C2.49280817 4.7911563 1.67517239 3.53647504 0 0 Z " fill="#E2A087" transform="translate(441,124)"/>
<path d="M0 0 C0.33 0 0.66 0 1 0 C1.2349655 10.05130211 1.3973666 20.15895808 -1 30 C-1.66 30.33 -2.32 30.66 -3 31 C-2.8590651 28.56212615 -2.71245458 26.12482147 -2.5625 23.6875 C-2.52318359 22.99720703 -2.48386719 22.30691406 -2.44335938 21.59570312 C-2.25072585 18.52838465 -1.97677283 15.93031848 -1 13 C-0.77548542 10.77425665 -0.59217122 8.54418481 -0.4375 6.3125 C-0.35371094 5.13300781 -0.26992187 3.95351562 -0.18359375 2.73828125 C-0.12300781 1.83464844 -0.06242188 0.93101563 0 0 Z " fill="#5E8E96" transform="translate(223,107)"/>
<path d="M0 0 C2.97 0.495 2.97 0.495 6 1 C6 1.99 6 2.98 6 4 C6.66 4 7.32 4 8 4 C9.98 7.63 11.96 11.26 14 15 C13.34 15.66 12.68 16.32 12 17 C11.55269531 16.27554687 11.10539062 15.55109375 10.64453125 14.8046875 C7.36978584 9.5678878 4.11318418 4.61175196 0 0 Z " fill="#E38979" transform="translate(339,277)"/>
<path d="M0 0 C0.33 0 0.66 0 1 0 C2.33257403 18.82004556 2.33257403 18.82004556 1 28 C-1.03219488 24.59648662 -1.36891039 21.6767073 -1.625 17.75 C-1.69976562 16.67234375 -1.77453125 15.5946875 -1.8515625 14.484375 C-1.90054687 13.66453125 -1.94953125 12.8446875 -2 12 C-1.34 12 -0.68 12 0 12 C0 8.04 0 4.08 0 0 Z " fill="#7FB6C7" transform="translate(370,79)"/>
<path d="M0 0 C0.33 0 0.66 0 1 0 C2.27041977 9.04039783 3.34915606 17.84435229 3 27 C2.34 27.33 1.68 27.66 1 28 C-0.12998844 18.65741704 -0.09908936 9.39146903 0 0 Z " fill="#98BFCA" transform="translate(370,62)"/>
<path d="M0 0 C0.99 0.33 1.98 0.66 3 1 C-0.63 3.97 -4.26 6.94 -8 10 C-8.33 9.34 -8.66 8.68 -9 8 C-10.98 9.32 -12.96 10.64 -15 12 C-15.66 11.67 -16.32 11.34 -17 11 C-14.13301658 7.50586395 -12.15849852 5.71163126 -7.6875 5.1875 C-5.8621875 5.0946875 -5.8621875 5.0946875 -4 5 C-4 4.34 -4 3.68 -4 3 C-2.1875 1.3125 -2.1875 1.3125 0 0 Z " fill="#D47E6F" transform="translate(321,471)"/>
<path d="M0 0 C0.33 0.66 0.66 1.32 1 2 C-0.76789306 6.86911328 -4.73560733 9.36635023 -9 12 C-12 12.875 -12 12.875 -14 13 C-9.55618306 8.41283413 -4.79771501 4.21237287 0 0 Z " fill="#DF9B88" transform="translate(296,443)"/>
<path d="M0 0 C0 0.66 0 1.32 0 2 C-2.05673453 3.01180498 -4.12065348 4.00901477 -6.1875 5 C-7.33605469 5.556875 -8.48460937 6.11375 -9.66796875 6.6875 C-12.79090519 7.91763675 -14.70286482 8.29804612 -18 8 C-17.67 7.34 -17.34 6.68 -17 6 C-14.4375 5.375 -14.4375 5.375 -12 5 C-12 4.34 -12 3.68 -12 3 C-10.56445975 2.49440092 -9.1264798 1.9957251 -7.6875 1.5 C-6.88699219 1.2215625 -6.08648437 0.943125 -5.26171875 0.65625 C-3 0 -3 0 0 0 Z " fill="#3C767E" transform="translate(268,412)"/>
<path d="M0 0 C3.6779661 4.9039548 3.6779661 4.9039548 4 8 C3.44140625 11.015625 3.44140625 11.015625 2.5625 14.25 C2.27503906 15.32765625 1.98757812 16.4053125 1.69140625 17.515625 C1.46324219 18.33546875 1.23507813 19.1553125 1 20 C0.67 20 0.34 20 0 20 C0 13.4 0 6.8 0 0 Z " fill="#3D91A0" transform="translate(144,278)"/>
<path d="M0 0 C0.33 0.66 0.66 1.32 1 2 C0.67 2.66 0.34 3.32 0 4 C0.60328125 4.25007812 1.2065625 4.50015625 1.828125 4.7578125 C4.32412643 6.18538167 5.26077161 7.43891652 6.75 9.875 C7.17796875 10.55304688 7.6059375 11.23109375 8.046875 11.9296875 C9 14 9 14 9 18 C6 17 6 17 4.71875 14.890625 C4.3165625 14.01921875 3.914375 13.1478125 3.5 12.25 C1.82140916 8.71025255 0.09960282 5.31516235 -2 2 C-1.34 1.34 -0.68 0.68 0 0 Z " fill="#B39680" transform="translate(237,245)"/>
<path d="M0 0 C1.22589844 0.08765625 2.45179688 0.1753125 3.71484375 0.265625 C6.67844312 0.69443051 8.54082903 1.20792552 11.0625 2.75 C4.04175636 5.09024788 -3.00633191 3.5469695 -9.9375 1.75 C-6.16696683 -0.76368878 -4.45799277 -0.35551674 0 0 Z " fill="#DD8777" transform="translate(408.9375,232.25)"/>
<path d="M0 0 C0.66 0 1.32 0 2 0 C2.9765625 1.79036458 3.953125 3.58072917 4.9296875 5.37109375 C5.91410024 7.16618315 5.91410024 7.16618315 8 8 C8.72693904 9.97888961 9.39816251 11.97954558 10 14 C6.41477124 12.52934075 4.55613904 10.59934458 2.1875 7.5625 C1.56230469 6.78003906 0.93710938 5.99757813 0.29296875 5.19140625 C-0.34705078 4.10666016 -0.34705078 4.10666016 -1 3 C-0.67 2.01 -0.34 1.02 0 0 Z " fill="#6EA8C5" transform="translate(101,421)"/>
<path d="M0 0 C0.66 0 1.32 0 2 0 C2.73347027 1.73365699 3.4663742 3.46755762 4.1953125 5.203125 C4.98674562 7.0804913 4.98674562 7.0804913 6.25 9 C7.41704423 12.11211795 6.61427889 14.80574979 6 18 C3.87399696 14.81099544 2.97863761 12.09585431 1.875 8.4375 C1.52179688 7.28121094 1.16859375 6.12492187 0.8046875 4.93359375 C0 2 0 2 0 0 Z " fill="#7BAEC8" transform="translate(68,359)"/>
<path d="M0 0 C3.608181 1.202727 4.43689336 2.74650948 6.21484375 6.01171875 C7.40799006 9.03316887 7.26077635 11.80548974 7 15 C6.34 15 5.68 15 5 15 C4.731875 14.113125 4.46375 13.22625 4.1875 12.3125 C3.135061 9.01430763 3.135061 9.01430763 1.375 6.375 C0 4 0 4 0 0 Z " fill="#DE8C72" transform="translate(455,137)"/>
<path d="M0 0 C1.67401097 0.64800425 3.33805262 1.32165413 5 2 C5.74765625 2.30292969 6.4953125 2.60585938 7.265625 2.91796875 C8.06484375 3.25441406 8.8640625 3.59085937 9.6875 3.9375 C10.45449219 4.25589844 11.22148437 4.57429688 12.01171875 4.90234375 C14 6 14 6 16 9 C9.06924861 8.8525372 5.00472127 5.63021832 0 1 C0 0.67 0 0.34 0 0 Z " fill="#69A7C3" transform="translate(185,497)"/>
<path d="M0 0 C12.35036496 3.77372263 12.35036496 3.77372263 17 7 C17.33 7.99 17.66 8.98 18 10 C11.18755248 8.16402123 5.55662233 5.38749848 0 1 C0 0.67 0 0.34 0 0 Z " fill="#7BB0CA" transform="translate(270,179)"/>
<path d="M0 0 C1.485 0.99 1.485 0.99 3 2 C3.4765625 4.93359375 3.4765625 4.93359375 3.625 8.4375 C3.84230787 13.3039152 3.84230787 13.3039152 5 18 C4.0625 20.1875 4.0625 20.1875 3 22 C1.05789567 14.52058632 -0.39363688 7.74152536 0 0 Z " fill="#4A828D" transform="translate(100,96)"/>
<path d="M0 0 C-1.50607883 4.10088936 -3.96188878 5.53509554 -7.625 7.75 C-9.12933594 8.67039062 -9.12933594 8.67039062 -10.6640625 9.609375 C-11.43492187 10.06828125 -12.20578125 10.5271875 -13 11 C-13 9.35 -13 7.7 -13 6 C-11.9275 5.566875 -10.855 5.13375 -9.75 4.6875 C-6.46680082 3.29462762 -3.4486686 0 0 0 Z " fill="#846C6F" transform="translate(312,479)"/>
<path d="M0 0 C2.10588701 0.78707902 4.20965616 1.57982626 6.3125 2.375 C8.07013672 3.03628906 8.07013672 3.03628906 9.86328125 3.7109375 C13 5 13 5 16 7 C9.80282648 8.75137513 6.50720839 7.17309311 0.94140625 4.12890625 C0.30074219 3.75636719 -0.33992188 3.38382812 -1 3 C-0.67 2.01 -0.34 1.02 0 0 Z " fill="#669FA5" transform="translate(270,300)"/>
<path d="M0 0 C3.62528568 -0.20140476 5.86501708 0.14223235 9 2 C9 2.66 9 3.32 9 4 C10.65 4.33 12.3 4.66 14 5 C14 5.99 14 6.98 14 8 C10.0397381 7.43726296 7.47032673 6.26476935 4.1875 4 C3.39730469 3.46375 2.60710937 2.9275 1.79296875 2.375 C1.20128906 1.92125 0.60960937 1.4675 0 1 C0 0.67 0 0.34 0 0 Z " fill="#E47867" transform="translate(320,263)"/>
<path d="M0 0 C1.12894876 0.93274109 2.25300876 1.87140122 3.375 2.8125 C4.00148437 3.33457031 4.62796875 3.85664063 5.2734375 4.39453125 C7 6 7 6 9 9 C8.625 11.1875 8.625 11.1875 8 13 C4.72653393 9.90347804 2.02490044 7.04980088 0 3 C0 2.01 0 1.02 0 0 Z " fill="#679FA2" transform="translate(227,239)"/>
<path d="M0 0 C3 1 3 1 4.1328125 2.8203125 C6.19394954 7.60799304 7.55731087 11.79840275 8 17 C3.09064105 12.46936302 0.6606187 6.60618704 0 0 Z " fill="#497C8B" transform="translate(10,191)"/>
<path d="M0 0 C4.09958133 6.14937199 5.48755971 13.6866043 5 21 C4.67 21 4.34 21 4 21 C4 19.35 4 17.7 4 16 C3.34 16 2.68 16 2 16 C0.40837921 10.42932723 -0.20674944 5.78898419 0 0 Z " fill="#4F7984" transform="translate(91,162)"/>
<path d="M0 0 C4.875 3.625 4.875 3.625 6 7 C7.95597184 8.39712274 9.95436401 9.73779907 12 11 C11.67 12.32 11.34 13.64 11 15 C9.34204471 13.45036847 7.69901956 11.88475231 6.0625 10.3125 C5.14597656 9.44238281 4.22945312 8.57226562 3.28515625 7.67578125 C0.95353228 4.94558908 0.29792703 3.51807447 0 0 Z " fill="#A6807A" transform="translate(212,470)"/>
<path d="M0 0 C0.99 0 1.98 0 3 0 C7.77676538 12.48519362 7.77676538 12.48519362 6 19 C5.67 19 5.34 19 5 19 C4.80664062 18.13117188 4.61328125 17.26234375 4.4140625 16.3671875 C4.15367187 15.21476562 3.89328125 14.06234375 3.625 12.875 C3.36976563 11.73804688 3.11453125 10.60109375 2.8515625 9.4296875 C2.05363523 6.21601712 1.09209441 3.12433966 0 0 Z " fill="#E08975" transform="translate(352,295)"/>
<path d="M0 0 C-6.02215104 4.01476736 -11.99943109 4.28573751 -19 4 C-18.67 3.01 -18.34 2.02 -18 1 C-11.97968656 0.39034801 -6.05329744 -0.13451772 0 0 Z " fill="#618C96" transform="translate(250,518)"/>
<path d="M0 0 C0.515625 0.680625 1.03125 1.36125 1.5625 2.0625 C4.01423384 5.0171536 6.62821485 7.62012452 9.4140625 10.25390625 C11.05952604 12.06553729 12.01478711 13.77107778 13 16 C9.84164893 14.60249952 7.67727175 12.94801766 5.25 10.5 C4.63640625 9.8915625 4.0228125 9.283125 3.390625 8.65625 C2 7 2 7 2 5 C1.34 5 0.68 5 0 5 C0 3.35 0 1.7 0 0 Z " fill="#3C616A" transform="translate(212,472)"/>
<path d="M0 0 C-1 2 -2 4 -3 6 C-3.66 6 -4.32 6 -5 6 C-5.66 7.98 -6.32 9.96 -7 12 C-7.66 12 -8.32 12 -9 12 C-9.33 12.66 -9.66 13.32 -10 14 C-9.25804433 8.95470146 -7.77765085 4.61604623 -3.9375 1.125 C-2 0 -2 0 0 0 Z " fill="#3C727D" transform="translate(217,433)"/>
<path d="M0 0 C0.87071019 2.41448469 1.20861066 3.53134043 0.14453125 5.921875 C-0.29503906 6.52515625 -0.73460937 7.1284375 -1.1875 7.75 C-1.82751953 8.67039062 -1.82751953 8.67039062 -2.48046875 9.609375 C-4 11 -4 11 -8 11 C-8 10.34 -8 9.68 -8 9 C-7.34 9 -6.68 9 -6 9 C-5.7525 8.443125 -5.505 7.88625 -5.25 7.3125 C-3.78393985 4.60028873 -1.97010529 2.36412635 0 0 Z " fill="#E1937E" transform="translate(325,412)"/>
<path d="M0 0 C0.88816406 0.09925781 1.77632813 0.19851563 2.69140625 0.30078125 C5.90655444 0.69848214 9.10972253 1.13762082 12.3125 1.625 C12.3125 1.955 12.3125 2.285 12.3125 2.625 C10.27170995 2.8218121 8.22979993 3.00702831 6.1875 3.1875 C4.48207031 3.34412109 4.48207031 3.34412109 2.7421875 3.50390625 C-0.57647993 3.62108016 -3.4437686 3.2905072 -6.6875 2.625 C-6.6875 1.965 -6.6875 1.305 -6.6875 0.625 C-4.15627212 -0.64061394 -2.79676042 -0.31693763 0 0 Z " fill="#69A2A9" transform="translate(290.6875,307.375)"/>
<path d="M0 0 C0.66 0 1.32 0 2 0 C3.00508801 1.78881736 4.00392736 3.58114696 5 5.375 C5.8353125 6.87160156 5.8353125 6.87160156 6.6875 8.3984375 C8 11 8 11 8 13 C5 12 5 12 3 9 C3 8.01 3 7.02 3 6 C2.01 5.67 1.02 5.34 0 5 C0 3.35 0 1.7 0 0 Z " fill="#DF977F" transform="translate(391,265)"/>
<path d="M0 0 C1.11375 0.598125 2.2275 1.19625 3.375 1.8125 C4.00148437 2.14894531 4.62796875 2.48539063 5.2734375 2.83203125 C7 4 7 4 9 7 C8.67 7.66 8.34 8.32 8 9 C4.54074837 7.7508258 1.85306797 6.32472205 -1 4 C-0.67 2.68 -0.34 1.36 0 0 Z " fill="#5F9A9F" transform="translate(178,18)"/>
<path d="M0 0 C0.33 0 0.66 0 1 0 C1.51137226 6.90352555 -0.13035626 11.74827614 -3 18 C-3.99 17.67 -4.98 17.34 -6 17 C-5.01 15.515 -5.01 15.515 -4 14 C-3.40396725 11.89271567 -3.40396725 11.89271567 -3 9.625 C-2.30335501 6.23576685 -1.43068499 3.16794533 0 0 Z " fill="#E49174" transform="translate(350,368)"/>
<path d="M0 0 C0.66 0.33 1.32 0.66 2 1 C1.58411954 7.19518473 0.39748106 12.26689311 -2 18 C-2.33 18 -2.66 18 -3 18 C-2.41509121 11.85845775 -1.45933748 5.99320151 0 0 Z " fill="#80AFC2" transform="translate(368,106)"/>
<path d="M0 0 C0.88336837 2.4667645 1.1312406 3.63859372 0.22265625 6.140625 C-0.16019531 6.83671875 -0.54304688 7.5328125 -0.9375 8.25 C-1.31777344 8.95640625 -1.69804688 9.6628125 -2.08984375 10.390625 C-2.39019531 10.92171875 -2.69054687 11.4528125 -3 12 C-3.99 11.67 -4.98 11.34 -6 11 C-5.39305845 7.84669446 -4.3583335 5.81111133 -2.4375 3.25 C-1.98246094 2.63640625 -1.52742188 2.0228125 -1.05859375 1.390625 C-0.70925781 0.93171875 -0.35992187 0.4728125 0 0 Z " fill="#5A979B" transform="translate(115,28)"/>
<path d="M0 0 C0.9435441 2.53899138 1.16906025 3.60909275 0.07421875 6.140625 C-0.61220703 7.18476563 -0.61220703 7.18476563 -1.3125 8.25 C-1.76238281 8.95640625 -2.21226562 9.6628125 -2.67578125 10.390625 C-3.11277344 10.92171875 -3.54976563 11.4528125 -4 12 C-4.66 12 -5.32 12 -6 12 C-5.57630928 10.3713449 -5.1355377 8.74712622 -4.6875 7.125 C-4.44386719 6.22007812 -4.20023437 5.31515625 -3.94921875 4.3828125 C-3 2 -3 2 0 0 Z " fill="#E08774" transform="translate(389,391)"/>
<path d="M0 0 C-1.59092052 4.13639336 -4.60474918 7.23213248 -8 10 C-8.66 10 -9.32 10 -10 10 C-10 10.66 -10 11.32 -10 12 C-10.66 12 -11.32 12 -12 12 C-10.82763323 7.16398706 -5.40844892 0 0 0 Z " fill="#87D0E7" transform="translate(119,255)"/>
<path d="M0 0 C5.96564796 0.50771472 10.63809899 2.38592128 16 5 C15.01 5.66 14.02 6.32 13 7 C9.3125 5.625 9.3125 5.625 6 4 C6 3.34 6 2.68 6 2 C4.35 2 2.7 2 1 2 C0.67 1.34 0.34 0.68 0 0 Z " fill="#78AAB0" transform="translate(189,218)"/>
<path d="M0 0 C0.66 0 1.32 0 2 0 C1.58742287 5.50102837 -0.54722675 9.76201664 -4 14 C-4.66 14 -5.32 14 -6 14 C-4.16508812 9.25981099 -2.08058541 4.63586749 0 0 Z " fill="#71A6BE" transform="translate(357,139)"/>
<path d="M0 0 C1.65 0 3.3 0 5 0 C1.6189962 4.13621084 -1.66590534 7.81316569 -6 11 C-5.45156876 7.16098132 -3.7234735 5.63836495 -1 3 C-0.67 2.01 -0.34 1.02 0 0 Z " fill="#DE9184" transform="translate(346,447)"/>
<path d="M0 0 C0.33 0.99 0.66 1.98 1 3 C0.01 3.33 -0.98 3.66 -2 4 C-2.165 4.66 -2.33 5.32 -2.5 6 C-2.665 6.66 -2.83 7.32 -3 8 C-3.99 8.33 -4.98 8.66 -6 9 C-6 9.66 -6 10.32 -6 11 C-7.32 10.67 -8.64 10.34 -10 10 C-6.7 6.7 -3.4 3.4 0 0 Z " fill="#DC9786" transform="translate(316,423)"/>
<path d="M0 0 C0 3.63195496 -0.95453155 4.74713911 -3 7.6875 C-3.556875 8.49574219 -4.11375 9.30398438 -4.6875 10.13671875 C-5.120625 10.75160156 -5.55375 11.36648438 -6 12 C-6.66 10.68 -7.32 9.36 -8 8 C-7.0409375 7.1028125 -7.0409375 7.1028125 -6.0625 6.1875 C-3.79689611 4.09189663 -3.79689611 4.09189663 -3 1 C-2.01 0.67 -1.02 0.34 0 0 Z " fill="#E28C7E" transform="translate(383,404)"/>
<path d="M0 0 C5.31027254 1.46032495 9.46330032 3.98320986 14 7 C12.328125 7.67578125 12.328125 7.67578125 10 8 C7.421875 6.85546875 7.421875 6.85546875 4.75 5.1875 C3.85796875 4.64480469 2.9659375 4.10210937 2.046875 3.54296875 C1.37140625 3.03378906 0.6959375 2.52460938 0 2 C0 1.34 0 0.68 0 0 Z " fill="#76A9AF" transform="translate(205,224)"/>
<path d="M0 0 C5.60461531 0.42089996 10.72086547 0.91613111 16 3 C16 3.33 16 3.66 16 4 C10.84828377 4.09038099 6.08086796 3.84681133 1 3 C0.67 2.01 0.34 1.02 0 0 Z " fill="#DFAD90" transform="translate(320,215)"/>
<path d="M0 0 C0.33 0 0.66 0 1 0 C1 5.28 1 10.56 1 16 C0.01 15.67 -0.98 15.34 -2 15 C-1.85816304 13.24967156 -1.71136571 11.49974466 -1.5625 9.75 C-1.48128906 8.77546875 -1.40007812 7.8009375 -1.31640625 6.796875 C-1.04925416 4.43538247 -0.64628032 2.28098935 0 0 Z " fill="#6CAAC4" transform="translate(250,90)"/>
<path d="M0 0 C-0.33 0.99 -0.66 1.98 -1 3 C-1.66 3 -2.32 3 -3 3 C-3.33 3.99 -3.66 4.98 -4 6 C-6.875 6.625 -6.875 6.625 -10 7 C-10.66 6.34 -11.32 5.68 -12 5 C-10.37750059 4.16180842 -8.75191503 3.3295884 -7.125 2.5 C-6.22007812 2.0359375 -5.31515625 1.571875 -4.3828125 1.09375 C-2 0 -2 0 0 0 Z " fill="#DF907F" transform="translate(254,475)"/>
<path d="M0 0 C-1.4859916 4.59306496 -3.85014682 7.43569245 -7 11 C-7.88257281 8.56754322 -8.21943692 7.47352178 -7.109375 5.078125 C-6.66078125 4.47484375 -6.2121875 3.8715625 -5.75 3.25 C-5.31171875 2.63640625 -4.8734375 2.0228125 -4.421875 1.390625 C-3 0 -3 0 0 0 Z " fill="#DE8878" transform="translate(454,207)"/>
<path d="M0 0 C0.99 0 1.98 0 3 0 C3.36192504 2.12369237 3.71431747 4.2490113 4.0625 6.375 C4.25972656 7.55835938 4.45695312 8.74171875 4.66015625 9.9609375 C5 13 5 13 4 15 C1.94637945 9.91059256 0.56820748 5.45479185 0 0 Z " fill="#326B76" transform="translate(87,157)"/>
<path d="M0 0 C0.99 0.66 1.98 1.32 3 2 C3.66 2 4.32 2 5 2 C5 2.99 5 3.98 5 5 C4.2575 5.144375 3.515 5.28875 2.75 5.4375 C0.47972261 5.90187492 -1.75759479 6.41863569 -4 7 C-2.92598892 4.08482708 -2.22189824 2.22189824 0 0 Z " fill="#E5715A" transform="translate(266,267)"/>
<path d="M0 0 C0.66 0.66 1.32 1.32 2 2 C1.7578125 4.6015625 1.7578125 4.6015625 1.125 7.625 C0.81949219 9.12933594 0.81949219 9.12933594 0.5078125 10.6640625 C0.34023437 11.43492188 0.17265625 12.20578125 0 13 C-0.99 13.33 -1.98 13.66 -3 14 C-2.69024532 12.22868439 -2.37709575 10.45796222 -2.0625 8.6875 C-1.88847656 7.70136719 -1.71445313 6.71523438 -1.53515625 5.69921875 C-1 3 -1 3 0 0 Z " fill="#549094" transform="translate(104,49)"/>
<path d="M0 0 C1.07991211 0.05414063 1.07991211 0.05414063 2.18164062 0.109375 C5.28319141 0.32824024 7.44003028 0.48753826 9.93359375 2.4296875 C10.26488281 2.90664062 10.59617187 3.38359375 10.9375 3.875 C9.4215625 3.6275 9.4215625 3.6275 7.875 3.375 C1.27308292 2.52737593 -5.4193696 2.79715082 -12.0625 2.875 C-8.41757989 -0.7984704 -4.83062638 -0.40001587 0 0 Z " fill="#80BECD" transform="translate(321.0625,10.125)"/>
<path d="M0 0 C2.16987052 4.33974105 2.21096692 4.66070189 1 9 C0.649375 10.258125 0.29875 11.51625 -0.0625 12.8125 C-0.371875 13.864375 -0.68125 14.91625 -1 16 C-1.99 16 -2.98 16 -4 16 C-2.68 10.72 -1.36 5.44 0 0 Z " fill="#E69A80" transform="translate(355,352)"/>
<path d="M0 0 C1.98 0 3.96 0 6 0 C4.4375 2.4375 4.4375 2.4375 2 5 C-1.75 5.8125 -1.75 5.8125 -5 6 C-4 4 -4 4 -1 3 C-0.67 2.01 -0.34 1.02 0 0 Z " fill="#DF7E70" transform="translate(438,220)"/>
<path d="M0 0 C4.17882671 2.56428003 7.12505529 5.01930733 10 9 C8.68 9 7.36 9 6 9 C6 8.34 6 7.68 6 7 C5.38125 6.71125 4.7625 6.4225 4.125 6.125 C2 5 2 5 0 3 C0 2.01 0 1.02 0 0 Z " fill="#5B8A94" transform="translate(66,129)"/>
<path d="M0 0 C0.66 0.33 1.32 0.66 2 1 C-1.43361902 4.63559661 -4.7973607 7.36113346 -9 10 C-7.125 5.25 -7.125 5.25 -6 3 C-4.34795544 2.29788106 -2.68076231 1.63028587 -1 1 C-0.67 0.67 -0.34 0.34 0 0 Z " fill="#DE725C" transform="translate(274,462)"/>
<path d="M0 0 C0.33 1.32 0.66 2.64 1 4 C1.99 4 2.98 4 4 4 C4.05399736 5.45792884 4.09279177 6.91642712 4.125 8.375 C4.14820313 9.18710937 4.17140625 9.99921875 4.1953125 10.8359375 C4 13 4 13 2 15 C1.66048381 13.43883181 1.32867456 11.87598662 1 10.3125 C0.814375 9.44238281 0.62875 8.57226562 0.4375 7.67578125 C0.01027953 5.06287036 -0.07616201 2.64186962 0 0 Z " fill="#E1957C" transform="translate(403,298)"/>
<path d="M0 0 C4.29 0 8.58 0 13 0 C8 4 8 4 5.54296875 4.171875 C4.37701172 3.96304687 4.37701172 3.96304687 3.1875 3.75 C2.39730469 3.62109375 1.60710937 3.4921875 0.79296875 3.359375 C-0.09455078 3.18148438 -0.09455078 3.18148438 -1 3 C-0.67 2.01 -0.34 1.02 0 0 Z " fill="#71A8AA" transform="translate(144,9)"/>
<path d="M0 0 C1.31896465 0.92838287 2.62998689 1.86805732 3.9375 2.8125 C4.66839844 3.33457031 5.39929688 3.85664063 6.15234375 4.39453125 C8 6 8 6 9 9 C5.625 8.4375 5.625 8.4375 2 7 C0.5625 3.375 0.5625 3.375 0 0 Z " fill="#6DA9C1" transform="translate(210,508)"/>
<path d="M0 0 C2.05076648 6.15229943 1.36013736 12.09965659 -1 18 C-1.33 18 -1.66 18 -2 18 C-2.054348 15.9377952 -2.09294961 13.87517184 -2.125 11.8125 C-2.14820312 10.66394531 -2.17140625 9.51539063 -2.1953125 8.33203125 C-2.00484152 5.08259628 -1.39360127 2.91339479 0 0 Z " fill="#226974" transform="translate(67,297)"/>
<path d="M0 0 C-0.33 0.66 -0.66 1.32 -1 2 C-2.65 1.67 -4.3 1.34 -6 1 C-6 1.66 -6 2.32 -6 3 C-10.02040985 3.69584017 -13.08263419 4.1700097 -17 3 C-14.73194205 2.30190555 -12.46133393 1.61628983 -10.1875 0.9375 C-9.54490234 0.73833984 -8.90230469 0.53917969 -8.24023438 0.33398438 C-3.33984375 -1.11328125 -3.33984375 -1.11328125 0 0 Z " fill="#6EA5AD" transform="translate(147,217)"/>
<path d="M0 0 C3.0319853 1.51599265 3.41024437 3.8596433 4.6875 6.9375 C5.14511719 8.01902344 5.60273438 9.10054687 6.07421875 10.21484375 C7 13 7 13 6 15 C3.17412288 12.60156648 2.29810862 10.47839022 1.3125 6.9375 C1.06113281 6.05964844 0.80976563 5.18179688 0.55078125 4.27734375 C0 2 0 2 0 0 Z " fill="#65989A" transform="translate(208,53)"/>
<path d="M0 0 C3.34243648 1.89404734 3.97997149 2.94091591 5.25 6.6875 C5.4975 7.780625 5.745 8.87375 6 10 C2.83884224 8.63016497 2.0072908 8.0109362 0 5 C-0.125 2.3125 -0.125 2.3125 0 0 Z " fill="#6BA6C3" transform="translate(94,411)"/>
<path d="M0 0 C1.27230469 0.00902344 2.54460937 0.01804687 3.85546875 0.02734375 C5.31919922 0.04474609 5.31919922 0.04474609 6.8125 0.0625 C6.8125 0.3925 6.8125 0.7225 6.8125 1.0625 C3.5125 1.3925 0.2125 1.7225 -3.1875 2.0625 C-3.1875 2.3925 -3.1875 2.7225 -3.1875 3.0625 C-5.4975 3.0625 -7.8075 3.0625 -10.1875 3.0625 C-10.1875 2.4025 -10.1875 1.7425 -10.1875 1.0625 C-6.62704823 -0.12431726 -3.74941663 -0.03439832 0 0 Z " fill="#E4715D" transform="translate(300.1875,258.9375)"/>
<path d="M0 0 C3.99455527 0.61454696 6.74466336 2.70646737 10 5 C8.375 5.6875 8.375 5.6875 6 6 C2.75 4.5625 2.75 4.5625 0 3 C0 2.01 0 1.02 0 0 Z " fill="#E8B093" transform="translate(354,227)"/>
<path d="M0 0 C-1.32 0.33 -2.64 0.66 -4 1 C-4 1.66 -4 2.32 -4 3 C-10.96428571 5.27678571 -10.96428571 5.27678571 -15 4 C-13.06767179 3.13419713 -11.12892806 2.28270059 -9.1875 1.4375 C-8.10855469 0.96183594 -7.02960938 0.48617188 -5.91796875 -0.00390625 C-3 -1 -3 -1 0 0 Z " fill="#DD745E" transform="translate(294,487)"/>
<path d="M0 0 C4.95696581 1.23924145 7.11658466 2.78577758 10 7 C5.1746274 6.58639663 3.13078071 4.5780351 0 1 C0 0.67 0 0.34 0 0 Z " fill="#6BA7C1" transform="translate(153,475)"/>
<path d="M0 0 C0.66 0.33 1.32 0.66 2 1 C-1.02491293 6.61769545 -4.12285858 7.04095286 -10 9 C-6.83047153 5.73991357 -3.60062011 2.77762123 0 0 Z " fill="#E29B88" transform="translate(280,456)"/>
<path d="M0 0 C1.22589844 0.29197266 1.22589844 0.29197266 2.4765625 0.58984375 C3.41628906 0.82380859 3.41628906 0.82380859 4.375 1.0625 C0.91837669 3.36691554 -0.57357881 3.32110135 -4.625 3.0625 C-5.285 2.7325 -5.945 2.4025 -6.625 2.0625 C-6.625 1.4025 -6.625 0.7425 -6.625 0.0625 C-3.99249612 -1.25375194 -2.82320944 -0.68563658 0 0 Z " fill="#6DBAD2" transform="translate(225.625,404.9375)"/>
<path d="M0 0 C4.875 4.75 4.875 4.75 6 7 C4.68 7.33 3.36 7.66 2 8 C0.10786631 5.61426621 -1.02391783 3.92824652 -2 1 C-1.34 0.67 -0.68 0.34 0 0 Z " fill="#72A7AC" transform="translate(257,288)"/>
<path d="M0 0 C3.7682873 2.51219153 4.28412065 4.89681026 6 9 C6.66 9.33 7.32 9.66 8 10 C7.67 10.99 7.34 11.98 7 13 C3.35333693 10.73213722 2.32102772 8.93595674 1.25 4.8125 C1.00765625 3.91144531 0.7653125 3.01039063 0.515625 2.08203125 C0.34546875 1.39496094 0.1753125 0.70789063 0 0 Z " fill="#6E9692" transform="translate(249,275)"/>
<path d="M0 0 C0.33 0 0.66 0 1 0 C1.19402245 4.17148265 1.01430083 7.28944583 -1 11 C-1.99 11.33 -2.98 11.66 -4 12 C-2 3.42857143 -2 3.42857143 0 0 Z " fill="#538A96" transform="translate(74,273)"/>
<path d="M0 0 C-1.32 1.32 -2.64 2.64 -4 4 C-4.99 3.67 -5.98 3.34 -7 3 C-7.99 3 -8.98 3 -10 3 C-6.86618053 -0.60389239 -4.59270471 -1.53090157 0 0 Z " fill="#EBA485" transform="translate(259,231)"/>
<path d="M0 0 C0.33 0.99 0.66 1.98 1 3 C-0.6875 4.5625 -0.6875 4.5625 -3 6 C-5.75 5.6875 -5.75 5.6875 -8 5 C-3.16129032 0 -3.16129032 0 0 0 Z " fill="#54929A" transform="translate(29,125)"/>
<path d="M0 0 C1.65 1.65 3.3 3.3 5 5 C4.67 5.66 4.34 6.32 4 7 C3.01 7.33 2.02 7.66 1 8 C-1 5 -1 5 -0.625 2.3125 C-0.41875 1.549375 -0.2125 0.78625 0 0 Z " fill="#5E999D" transform="translate(196,34)"/>
<path d="M0 0 C-2.35277269 2.72426311 -4.62496331 3.8141763 -8 5 C-8 4.34 -8 3.68 -8 3 C-8.99 3.33 -9.98 3.66 -11 4 C-11 3.34 -11 2.68 -11 2 C-3.57142857 -1.57142857 -3.57142857 -1.57142857 0 0 Z " fill="#246473" transform="translate(292,493)"/>
<path d="M0 0 C-0.33 1.32 -0.66 2.64 -1 4 C-3.3125 4.625 -3.3125 4.625 -6 5 C-6.99 4.34 -7.98 3.68 -9 3 C-2.25 0 -2.25 0 0 0 Z " fill="#465C66" transform="translate(299,487)"/>
<path d="M0 0 C0.66 0.66 1.32 1.32 2 2 C-0.31 5.3 -2.62 8.6 -5 12 C-6 8 -6 8 -4.78515625 5.859375 C-4.21667969 5.16328125 -3.64820313 4.4671875 -3.0625 3.75 C-2.49660156 3.04359375 -1.93070312 2.3371875 -1.34765625 1.609375 C-0.90292969 1.07828125 -0.45820313 0.5471875 0 0 Z " fill="#51848D" transform="translate(303,378)"/>
<path d="M0 0 C1.12758089 3.38274266 0.81750262 4.76778223 0.0625 8.1875 C-0.13214844 9.08855469 -0.32679688 9.98960937 -0.52734375 10.91796875 C-0.68332031 11.60503906 -0.83929688 12.29210937 -1 13 C-1.66 13 -2.32 13 -3 13 C-2.835 12.29875 -2.67 11.5975 -2.5 10.875 C-1.97584662 7.86111806 -1.92900317 5.05286375 -2 2 C-1.34 2 -0.68 2 0 2 C0 1.34 0 0.68 0 0 Z " fill="#E5886A" transform="translate(358,347)"/>
<path d="M0 0 C0.99 0.33 1.98 0.66 3 1 C3.6875 3.0625 3.6875 3.0625 4 5 C4.66 5 5.32 5 6 5 C6 6.32 6 7.64 6 9 C6.66 9.33 7.32 9.66 8 10 C7.01 10 6.02 10 5 10 C3.61328125 8.3203125 3.61328125 8.3203125 2.3125 6.125 C1.87550781 5.40570313 1.43851562 4.68640625 0.98828125 3.9453125 C0 2 0 2 0 0 Z " fill="#7CB0C9" transform="translate(258,162)"/>
<path d="M0 0 C2.97 0.495 2.97 0.495 6 1 C2.80009492 3.74277578 -0.00499382 5.6302836 -4 7 C-4.33 6.34 -4.66 5.68 -5 5 C-3.02 4.01 -1.04 3.02 1 2 C0.67 1.34 0.34 0.68 0 0 Z " fill="#5E8491" transform="translate(290,491)"/>
<path d="M0 0 C3.24732932 1.62366466 3.70155136 4.75387839 5 8 C4.34 8.66 3.68 9.32 3 10 C1.5 8.9375 1.5 8.9375 0 7 C-0.1875 3.3125 -0.1875 3.3125 0 0 Z " fill="#65A5C5" transform="translate(78,382)"/>
<path d="M0 0 C2.52588702 2.36292656 3.88820837 3.66462511 5 7 C4.34 7 3.68 7 3 7 C2.67 7.99 2.34 8.98 2 10 C1.67 8.02 1.34 6.04 1 4 C0.34 4 -0.32 4 -1 4 C-0.67 2.68 -0.34 1.36 0 0 Z " fill="#57A2C3" transform="translate(69,355)"/>
<path d="M0 0 C0.99 0.66 1.98 1.32 3 2 C0.36 4.31 -2.28 6.62 -5 9 C-5.33 8.01 -5.66 7.02 -6 6 C-4.68 5.67 -3.36 5.34 -2 5 C-1.855625 4.360625 -1.71125 3.72125 -1.5625 3.0625 C-1 1 -1 1 0 0 Z " fill="#DF8F81" transform="translate(267,271)"/>
<path d="M0 0 C2.43929746 1.92576115 4.80090595 3.80090595 7 6 C6.67 6.66 6.34 7.32 6 8 C3.5625 7.375 3.5625 7.375 1 6 C0.1875 2.875 0.1875 2.875 0 0 Z " fill="#2E6C7B" transform="translate(116,146)"/>
<path d="M0 0 C1.32 0.33 2.64 0.66 4 1 C1.03 4.96 1.03 4.96 -2 9 C-2.33 7.68 -2.66 6.36 -3 5 C-2.34 5 -1.68 5 -1 5 C-0.67 3.35 -0.34 1.7 0 0 Z " fill="#E08978" transform="translate(371,418)"/>
<path d="M0 0 C3.09547238 2.7951031 3.73138708 4.79173094 4 9 C3.34 9.66 2.68 10.32 2 11 C0.33657163 9.33657163 0.63951903 7.2174291 0.4375 4.9375 C0.35371094 4.01839844 0.26992188 3.09929687 0.18359375 2.15234375 C0.09271484 1.08693359 0.09271484 1.08693359 0 0 Z " fill="#5A9198" transform="translate(313,316)"/>
<path d="M0 0 C1.98 0.99 1.98 0.99 4 2 C4 2.66 4 3.32 4 4 C5.32 4.66 6.64 5.32 8 6 C7.34 6.66 6.68 7.32 6 8 C1.3125 4.38671875 1.3125 4.38671875 0 3 C0 2.01 0 1.02 0 0 Z " fill="#76ABB0" transform="translate(219,232)"/>
<path d="M0 0 C0.763125 0.20625 1.52625 0.4125 2.3125 0.625 C1.02284824 2.00062854 -0.31439293 3.33266393 -1.6875 4.625 C-2.3475 4.625 -3.0075 4.625 -3.6875 4.625 C-3.6875 3.965 -3.6875 3.305 -3.6875 2.625 C-4.3475 2.295 -5.0075 1.965 -5.6875 1.625 C-2.6875 -0.375 -2.6875 -0.375 0 0 Z " fill="#4C939D" transform="translate(121.6875,225.375)"/>
<path d="M0 0 C0 3.19610552 -0.54671542 4.41717626 -2 7.1875 C-2.37125 7.90292969 -2.7425 8.61835938 -3.125 9.35546875 C-3.41375 9.89816406 -3.7025 10.44085938 -4 11 C-5.04528847 7.76591956 -5.06464549 7.15699619 -3.6875 3.8125 C-2 1 -2 1 0 0 Z " fill="#DE9182" transform="translate(459,196)"/>
<path d="M0 0 C1.89213369 2.38573379 3.02391783 4.07175348 4 7 C0.06326356 5.68775452 -2.22719294 4.08089673 -5 1 C-3.35 0.67 -1.7 0.34 0 0 Z " fill="#477B8A" transform="translate(144,176)"/>
<path d="M0 0 C0.75 1.6875 0.75 1.6875 1 4 C-0.8125 6.75 -0.8125 6.75 -3 9 C-3.66 9 -4.32 9 -5 9 C-5 8.01 -5 7.02 -5 6 C-4.34 6 -3.68 6 -3 6 C-2.690625 5.195625 -2.38125 4.39125 -2.0625 3.5625 C-1 1 -1 1 0 0 Z " fill="#66A6C2" transform="translate(349,154)"/>
<path d="M0 0 C4.50802601 1.25805377 7.4912812 2.90407165 11 6 C8.35556973 6.3888868 6.61173798 6.39540909 4.33203125 4.921875 C2.83068266 3.68085526 1.40974295 2.34417351 0 1 C0 0.67 0 0.34 0 0 Z " fill="#BD7F71" transform="translate(224,484)"/>
<path d="M0 0 C1.90318884 2.85478326 2.4619099 4.41941308 3.125 7.6875 C3.29257812 8.49574219 3.46015625 9.30398438 3.6328125 10.13671875 C3.75398438 10.75160156 3.87515625 11.36648438 4 12 C3.34 12 2.68 12 2 12 C0.40861915 7.82262526 -0.21278058 4.46839215 0 0 Z " fill="#E2A290" transform="translate(399,278)"/>
<path d="M0 0 C3.19665902 2.13110601 4.33819262 3.59329487 6 7 C5.67 7.99 5.34 8.98 5 10 C4.01 9.34 3.02 8.68 2 8 C2 7.01 2 6.02 2 5 C1.34 4.67 0.68 4.34 0 4 C0 2.68 0 1.36 0 0 Z " fill="#B1E2E8" transform="translate(222,270)"/>
<path d="M0 0 C0 0.66 0 1.32 0 2 C-0.66 2 -1.32 2 -2 2 C-2 2.66 -2 3.32 -2 4 C-6.47058824 8 -6.47058824 8 -9 8 C-8.34 6.68 -7.68 5.36 -7 4 C-6.34 4 -5.68 4 -5 4 C-5 3.34 -5 2.68 -5 2 C-2 0 -2 0 0 0 Z " fill="#7CB0C6" transform="translate(337,172)"/>
<path d="M0 0 C3.48331435 3.01887244 4.79157144 5.56909529 6 10 C5.01 10 4.02 10 3 10 C2.49596232 8.70990357 1.99690074 7.41786211 1.5 6.125 C1.2215625 5.40570313 0.943125 4.68640625 0.65625 3.9453125 C0 2 0 2 0 0 Z " fill="#6E9EA2" transform="translate(201,41)"/>
<path d="M0 0 C0.33 0.99 0.66 1.98 1 3 C-0.75 5.6875 -0.75 5.6875 -3 8 C-3.99 8 -4.98 8 -6 8 C-4.55746343 4.63408134 -2.66735273 2.48952921 0 0 Z " fill="#689EA2" transform="translate(122,20)"/>
<path d="M0 0 C0 0.99 0 1.98 0 3 C-2.31 3.33 -4.62 3.66 -7 4 C-6.67 3.01 -6.34 2.02 -6 1 C-4 0 -4 0 0 0 Z " fill="#326876" transform="translate(259,512)"/>
<path d="M0 0 C-2.52788007 2.79872437 -4.20411134 4.45773019 -8 5 C-8 3.68 -8 2.36 -8 1 C-5.07175348 0.02391783 -3.04386724 -0.08226668 0 0 Z " fill="#55838F" transform="translate(281,501)"/>
<path d="M0 0 C0.99 0.33 1.98 0.66 3 1 C-0.96 4.465 -0.96 4.465 -5 8 C-5.33 7.01 -5.66 6.02 -6 5 C-5.34 5 -4.68 5 -4 5 C-4 4.34 -4 3.68 -4 3 C-2.1875 1.3125 -2.1875 1.3125 0 0 Z " fill="#DA978D" transform="translate(321,471)"/>
<path d="M0 0 C-1.45449401 1.0055761 -2.91372443 2.00430435 -4.375 3 C-5.59316406 3.8353125 -5.59316406 3.8353125 -6.8359375 4.6875 C-9 6 -9 6 -11 6 C-9.89210592 2.67631776 -9.51563783 2.38436907 -6.625 0.75 C-6.01914063 0.39421875 -5.41328125 0.0384375 -4.7890625 -0.328125 C-3 -1 -3 -1 0 0 Z " fill="#93D4E4" transform="translate(133,247)"/>
<path d="M0 0 C1.32 0 2.64 0 4 0 C4 0.66 4 1.32 4 2 C4.86625 2.185625 4.86625 2.185625 5.75 2.375 C8.02335767 3.00648824 9.9253529 3.88858191 12 5 C12 5.66 12 6.32 12 7 C7.69235185 5.43358249 3.93828536 3.31663844 0 1 C0 0.67 0 0.34 0 0 Z " fill="#5BA4AA" transform="translate(192,243)"/>
<path d="M0 0 C1.46067199 0.45082469 2.91848032 0.91093537 4.375 1.375 C5.18710937 1.63023437 5.99921875 1.88546875 6.8359375 2.1484375 C9 3 9 3 11 5 C9.234375 5.6484375 9.234375 5.6484375 7 6 C5.078125 5.0390625 5.078125 5.0390625 3.25 3.625 C2.63640625 3.16351563 2.0228125 2.70203125 1.390625 2.2265625 C0.93171875 1.82179687 0.4728125 1.41703125 0 1 C0 0.67 0 0.34 0 0 Z " fill="#85B5CD" transform="translate(270,179)"/>
<path d="M0 0 C-1.26941497 3.91402949 -2.51167694 5.79072873 -6 8 C-5.67 5.69 -5.34 3.38 -5 1 C-2 0 -2 0 0 0 Z " fill="#7FB1C8" transform="translate(344,164)"/>
<path d="M0 0 C2.475 0.495 2.475 0.495 5 1 C6.375 3.375 6.375 3.375 7 6 C6.67 6.99 6.34 7.98 6 9 C4.02 6.03 2.04 3.06 0 0 Z " fill="#508494" transform="translate(118,153)"/>
<path d="M0 0 C2.79872437 2.52788007 4.45773019 4.20411134 5 8 C4.01 8 3.02 8 2 8 C0.23537317 4.91190305 0 3.76687864 0 0 Z " fill="#57838D" transform="translate(84,149)"/>
<path d="M0 0 C0.99 0.33 1.98 0.66 3 1 C3 1.99 3 2.98 3 4 C0.36 4.33 -2.28 4.66 -5 5 C-3.35 3.35 -1.7 1.7 0 0 Z " fill="#629B9F" transform="translate(128,15)"/>
<path d="M0 0 C1.98 0 3.96 0 6 0 C5.34 1.32 4.68 2.64 4 4 C2.68 4 1.36 4 0 4 C0 2.68 0 1.36 0 0 Z " fill="#346875" transform="translate(261,508)"/>
<path d="M0 0 C0.33 1.32 0.66 2.64 1 4 C-0.98 4.99 -2.96 5.98 -5 7 C-4.75 4.625 -4.75 4.625 -4 2 C-1.9375 0.6875 -1.9375 0.6875 0 0 Z " fill="#E27159" transform="translate(258,473)"/>
<path d="M0 0 C3.3 0.33 6.6 0.66 10 1 C6.23312136 2.88343932 4.97041037 3.22057835 1 3 C0.67 2.01 0.34 1.02 0 0 Z " fill="#6BA4AA" transform="translate(179,216)"/>
<path d="M0 0 C0.33 0 0.66 0 1 0 C1 2.31 1 4.62 1 7 C0.01 6.67 -0.98 6.34 -2 6 C-2.33 6.99 -2.66 7.98 -3 9 C-3.66 8.34 -4.32 7.68 -5 7 C-4.360625 6.21625 -3.72125 5.4325 -3.0625 4.625 C-1.01857687 2.20460719 -1.01857687 2.20460719 0 0 Z " fill="#266B79" transform="translate(212,157)"/>
<path d="M0 0 C0.33 0 0.66 0 1 0 C0.67 2.31 0.34 4.62 0 7 C-0.66 7 -1.32 7 -2 7 C-2 7.66 -2 8.32 -2 9 C-2.66 9 -3.32 9 -4 9 C-2.94124926 5.59687262 -1.99097846 2.98646769 0 0 Z " fill="#8DBDCF" transform="translate(267,44)"/>
<path d="M0 0 C0.99 0 1.98 0 3 0 C1.95125002 2.62187494 1.35068687 3.79371361 -1.125 5.25 C-1.74375 5.4975 -2.3625 5.745 -3 6 C-2.42655063 3.13275314 -2.1385485 2.1385485 0 0 Z " fill="#87BBCD" transform="translate(281,27)"/>
<path d="M0 0 C0.86625 0.3403125 0.86625 0.3403125 1.75 0.6875 C-4 5.6875 -4 5.6875 -6.25 5.6875 C-6.25 4.6975 -6.25 3.7075 -6.25 2.6875 C-4.08146295 0.51896295 -3.10906228 -0.43181421 0 0 Z " fill="#E29B8F" transform="translate(330.25,465.3125)"/>
<path d="M0 0 C-3.51187196 2.40814077 -5.72656908 3.36629408 -10 3 C-4.375 -1.3125 -4.375 -1.3125 0 0 Z " fill="#37727A" transform="translate(231,427)"/>
<path d="M0 0 C0.99 0.33 1.98 0.66 3 1 C1.375 6.75 1.375 6.75 -2 9 C-1.51421457 5.87709365 -1.0013988 3.00419641 0 0 Z " fill="#598695" transform="translate(89,213)"/>
<path d="M0 0 C0 3.63 0 7.26 0 11 C-1.80330533 7.39338934 -2.46599103 4.91606575 -3 1 C-1 0 -1 0 0 0 Z " fill="#548792" transform="translate(10,180)"/>
<path d="M0 0 C0.33 0 0.66 0 1 0 C1 2.97 1 5.94 1 9 C0.01 9.33 -0.98 9.66 -2 10 C-1.46274105 6.62294375 -0.88935377 3.303314 0 0 Z " fill="#DC8773" transform="translate(379,162)"/>
<path d="M0 0 C0.99 0.33 1.98 0.66 3 1 C1.625 2.5 1.625 2.5 0 4 C-0.66 4 -1.32 4 -2 4 C-2 4.66 -2 5.32 -2 6 C-3.32 6.33 -4.64 6.66 -6 7 C-4.02 4.69 -2.04 2.38 0 0 Z " fill="#DE8266" transform="translate(397,136)"/>
<path d="M0 0 C2.5 1.3125 2.5 1.3125 5 3 C5 3.99 5 4.98 5 6 C4.01 6 3.02 6 2 6 C0 3 0 3 0 0 Z " fill="#E2977D" transform="translate(451,132)"/>
<path d="M0 0 C0.66 0.99 1.32 1.98 2 3 C1.3125 5.625 1.3125 5.625 0 8 C-0.99 8.33 -1.98 8.66 -3 9 C-2.01 6.03 -1.02 3.06 0 0 Z " fill="#5D989C" transform="translate(108,39)"/>
<path d="M0 0 C1.45823212 -0.0270043 2.91660675 -0.04639787 4.375 -0.0625 C5.18710938 -0.07410156 5.99921875 -0.08570313 6.8359375 -0.09765625 C9 0 9 0 11 1 C10.67 1.99 10.34 2.98 10 4 C9.46375 3.690625 8.9275 3.38125 8.375 3.0625 C5.6015043 1.82172561 2.99957163 1.4090325 0 1 C0 0.67 0 0.34 0 0 Z " fill="#3B8084" transform="translate(148,10)"/>
<path d="M0 0 C0.99 0 1.98 0 3 0 C2.1875 2.4375 2.1875 2.4375 1 5 C0.01 5.33 -0.98 5.66 -2 6 C-2 4.68 -2 3.36 -2 2 C-1.34 2 -0.68 2 0 2 C0 1.34 0 0.68 0 0 Z " fill="#E38C77" transform="translate(394,378)"/>
<path d="M0 0 C0.33 0.66 0.66 1.32 1 2 C0.22265625 3.9453125 0.22265625 3.9453125 -0.9375 6.125 C-1.31777344 6.84945313 -1.69804687 7.57390625 -2.08984375 8.3203125 C-2.39019531 8.87460937 -2.69054687 9.42890625 -3 10 C-4.26339822 6.20980534 -3.49719015 4.62477616 -2 1 C-1.34 0.67 -0.68 0.34 0 0 Z " fill="#5F8E96" transform="translate(311,365)"/>
<path d="M0 0 C1.65 0 3.3 0 5 0 C3.625 2.5 3.625 2.5 2 5 C1.34 5 0.68 5 0 5 C0 3.35 0 1.7 0 0 Z " fill="#CE8373" transform="translate(256,280)"/>
<path d="M0 0 C2.5654594 2.5654594 2.54046087 4.47686668 3 8 C2.01 8 1.02 8 0 8 C-0.38063221 5.6739143 -0.71269945 3.33944736 -1 1 C-0.67 0.67 -0.34 0.34 0 0 Z " fill="#1E6371" transform="translate(18,201)"/>
<path d="M0 0 C0.66 0.66 1.32 1.32 2 2 C1.8125 4 1.8125 4 1 6 C0.01 6.66 -0.98 7.32 -2 8 C-2 4.79604584 -1.25664978 2.90600261 0 0 Z " fill="#326A7A" transform="translate(203,170)"/>
<path d="M0 0 C0.33 0.99 0.66 1.98 1 3 C2.32 3 3.64 3 5 3 C5 3.99 5 4.98 5 6 C3.68 6.33 2.36 6.66 1 7 C0.67 4.69 0.34 2.38 0 0 Z " fill="#407C8A" transform="translate(104,118)"/>
<path d="M0 0 C2.31 0.33 4.62 0.66 7 1 C7 1.99 7 2.98 7 4 C4 4 4 4 1.8125 2 C1.214375 1.34 0.61625 0.68 0 0 Z " fill="#499296" transform="translate(179,22)"/>
<path d="M0 0 C2.5 1.8125 2.5 1.8125 5 4 C5 4.99 5 5.98 5 7 C4.34 7 3.68 7 3 7 C3 6.34 3 5.68 3 5 C1.68 4.34 0.36 3.68 -1 3 C-0.67 2.01 -0.34 1.02 0 0 Z " fill="#8FBDCE" transform="translate(346,18)"/>
<path d="M0 0 C3.96 1.98 3.96 1.98 8 4 C8 4.33 8 4.66 8 5 C5.69 4.67 3.38 4.34 1 4 C0.67 2.68 0.34 1.36 0 0 Z " fill="#D49488" transform="translate(217,474)"/>
<path d="M0 0 C0.66 0.33 1.32 0.66 2 1 C1.34 2.65 0.68 4.3 0 6 C-1.32 5.67 -2.64 5.34 -4 5 C-2.25 1.125 -2.25 1.125 0 0 Z " fill="#E1725E" transform="translate(340,453)"/>
<path d="M0 0 C2.50037734 2.17424117 3.43628586 3.73045798 4 7 C3.01 7.495 3.01 7.495 2 8 C-0.1519437 4.77208445 -0.20086443 3.71599191 0 0 Z " fill="#6EA5C1" transform="translate(87,400)"/>
<path d="M0 0 C0.66 0.33 1.32 0.66 2 1 C1.34 2.65 0.68 4.3 0 6 C-1.65 5.67 -3.3 5.34 -5 5 C-3.68 4.67 -2.36 4.34 -1 4 C-0.67 2.68 -0.34 1.36 0 0 Z " fill="#4894A1" transform="translate(217,316)"/>
<path d="M0 0 C0.33 1.32 0.66 2.64 1 4 C-0.32 4.99 -1.64 5.98 -3 7 C-3.66 6.67 -4.32 6.34 -5 6 C-4.67 5.34 -4.34 4.68 -4 4 C-3.34 4 -2.68 4 -2 4 C-1.34 2.68 -0.68 1.36 0 0 Z " fill="#5E949F" transform="translate(93,245)"/>
<path d="M0 0 C1.65 0.33 3.3 0.66 5 1 C5 1.99 5 2.98 5 4 C3.02 3.34 1.04 2.68 -1 2 C-0.67 1.34 -0.34 0.68 0 0 Z " fill="#E8A17F" transform="translate(349,225)"/>
<path d="M0 0 C1.25541557 3.76624671 0.37061958 5.37188934 -1 9 C-3 6 -3 6 -2.625 3.8125 C-2.41875 3.214375 -2.2125 2.61625 -2 2 C-1.34 2 -0.68 2 0 2 C0 1.34 0 0.68 0 0 Z " fill="#547C8A" transform="translate(94,205)"/>
<path d="M0 0 C3.36591866 1.44253657 5.51047079 3.33264727 8 6 C2.33846154 4.52307692 2.33846154 4.52307692 0.625 1.875 C0.41875 1.25625 0.2125 0.6375 0 0 Z " fill="#2A6274" transform="translate(135,172)"/>
<path d="M0 0 C0.66 0.66 1.32 1.32 2 2 C1.9765625 4.1640625 1.9765625 4.1640625 1.625 6.625 C1.51414062 7.44226563 1.40328125 8.25953125 1.2890625 9.1015625 C1.19367188 9.72804687 1.09828125 10.35453125 1 11 C0.67 11 0.34 11 0 11 C-1.28571429 3.57142857 -1.28571429 3.57142857 0 0 Z " fill="#E0977E" transform="translate(462,148)"/>
</svg>
